<?xml version="1.0" standalone="no"?>
<!DOCTYPE svg PUBLIC "-//W3C//DTD SVG 1.1//EN" "http://www.w3.org/Graphics/SVG/1.1/DTD/svg11.dtd" >
<svg xmlns="http://www.w3.org/2000/svg" xmlns:xlink="http://www.w3.org/1999/xlink" version="1.1">
<metadata></metadata>
<defs>
<font id="amsdamregular" horiz-adv-x="1148" >
<font-face units-per-em="2048" ascent="1638" descent="-410" />
<missing-glyph horiz-adv-x="820" />
<glyph horiz-adv-x="0" />
<glyph horiz-adv-x="0" />
<glyph unicode="&#xd;" horiz-adv-x="0" />
<glyph unicode=" "  horiz-adv-x="820" />
<glyph unicode="&#x09;" horiz-adv-x="820" />
<glyph unicode="&#xa0;" horiz-adv-x="820" />
<glyph unicode="!" horiz-adv-x="638" d="M164 84q0 50 34 82q36 34 84 34t82 -34q32 -32 32 -82q0 -46 -32 -80q-34 -34 -82 -34t-84 34q-34 34 -34 80zM204 1620v298v24v4v20v4v4q0 4 2 6q6 100 48 148q40 48 94 52h12q46 0 76 -26q36 -28 38 -78q2 -6 2 -10q0 -40 -26 -72q-26 -38 -82 -40h-6h-6v-332 q-8 -272 -26 -818q0 -12 -12 -24q-12 -10 -26 -10h-22t-26 10q-12 12 -12 24q-8 272 -28 816z" />
<glyph unicode="&#x22;" horiz-adv-x="962" d="M82 1416v6q4 12 18 22q8 6 42 36q36 30 70 86q16 30 30 68t18 84q2 32 -2 58q-4 28 -12 50q-10 -6 -22 -10q-10 -4 -24 -4q-56 0 -84 34q-30 36 -30 80q0 52 34 82q32 30 86 30q62 0 112 -64q48 -64 48 -206q0 -110 -38 -194q-40 -82 -86 -132q-24 -28 -46 -46t-36 -26 t-28 -10h-2q-10 0 -18 10t-24 28q-6 8 -6 18zM596 1416v6q2 12 18 22q6 6 42 36t68 86q18 30 32 68t18 84q2 32 -2 58q-4 28 -12 50q-10 -6 -22 -10t-24 -4q-56 0 -86 34q-28 36 -28 80q0 52 32 82q34 30 88 30q62 0 112 -64q48 -64 48 -206q0 -60 -12 -112q-14 -52 -32 -94 q-38 -80 -86 -128q-50 -48 -76 -64q-16 -8 -28 -10h-2q-12 0 -20 10q-6 10 -22 28q-6 8 -6 18z" />
<glyph unicode="#" horiz-adv-x="1470" d="M82 628v14q0 16 10 26q10 12 24 12h252l90 522h-258q-16 0 -26 10q-12 12 -12 28v16q0 16 12 26q10 12 26 12h272q38 228 114 682q2 18 14 24q12 8 24 8h18q16 0 24 -14q8 -12 6 -30q-36 -224 -112 -670h468q38 228 116 682q2 18 12 24q12 8 24 8h20q18 0 24 -14 q8 -12 6 -30q-38 -224 -112 -670h238q14 0 24 -12q10 -10 10 -26v-16q0 -16 -8 -28q-8 -10 -24 -10h-252l-90 -522h256q16 0 26 -12q12 -10 12 -26v-14q0 -14 -10 -26t-24 -12h-274q-30 -186 -94 -558q-2 -14 -14 -22q-10 -10 -24 -10h-16q-20 0 -30 10t-4 34q30 182 94 546 h-470q-32 -186 -92 -558q-2 -14 -14 -22q-10 -10 -24 -10h-16q-20 0 -30 10t-6 34l96 546h-242q-14 0 -24 12t-10 26zM460 680h468q28 174 86 522h-464z" />
<glyph unicode="$" horiz-adv-x="1500" d="M164 232v8q0 10 12 28q10 14 32 40q16 22 34 14t36 -22q14 -12 36 -30q24 -20 58 -42q64 -42 158 -82q96 -42 216 -50v860q-92 30 -172 62t-146 72q-122 70 -192 174q-68 104 -68 266q0 54 14 112q16 60 48 116q60 106 186 186t330 90v106q0 20 14 30q12 8 26 8h12 q16 0 26 -10q12 -10 12 -28v-108q170 -10 288 -66q120 -54 148 -72q80 -46 106 -102q24 -54 8 -102q-18 -50 -58 -72q-40 -20 -88 -4q-42 16 -66 56q-22 38 -4 92q4 8 8 14l8 12q-36 22 -132 66t-218 54q0 -210 -2 -422q-2 -210 -2 -420q272 -96 428 -222q158 -128 158 -364 q0 -134 -78 -244q-80 -112 -204 -178q-68 -38 -144 -60q-78 -22 -160 -26v-310q0 -16 -12 -26q-12 -8 -28 -8t-32 8q-14 8 -14 26v310q-82 4 -156 24q-72 18 -132 42q-114 48 -186 100q-70 54 -88 70q-12 10 -20 24zM300 1532q0 -176 120 -270q122 -94 326 -162v54v758 q-160 -8 -256 -68t-142 -138q-26 -42 -38 -88q-10 -44 -10 -86zM832 96q184 10 314 120q132 110 132 262q0 170 -120 268q-118 98 -326 172v-92v-730z" />
<glyph unicode="%" horiz-adv-x="1690" d="M0 1642q0 166 116 280q116 116 280 116t280 -116q116 -114 116 -280t-116 -280q-116 -116 -280 -116t-280 116q-116 114 -116 280zM108 1642q0 -120 84 -206q84 -84 204 -84q118 0 202 84q84 86 84 206q0 118 -84 202t-202 84q-120 0 -204 -84t-84 -202zM220 28 q0 10 6 22q364 648 1090 1944q-12 0 -24 4q-12 2 -22 10q-46 32 -50 76q-6 46 20 84q30 42 74 48h16q36 0 72 -24q52 -36 56 -116v-8q2 -78 -76 -190q-350 -618 -1050 -1856q-4 -10 -14 -16q-12 -4 -20 -4h-52q-18 0 -24 16q-2 4 -2 10zM898 366q0 166 114 282 q116 116 282 116q164 0 280 -116t116 -282q0 -164 -116 -280q-118 -116 -280 -116q-166 0 -282 116q-114 116 -114 280zM1004 366q0 -120 84 -204q86 -84 206 -84q118 0 202 84t84 204q0 118 -84 202t-202 84q-120 0 -206 -84q-84 -84 -84 -202z" />
<glyph unicode="&#x26;" horiz-adv-x="1754" d="M82 498q0 78 18 146q20 68 52 124q62 108 158 182q98 76 196 130q-14 14 -42 46q-94 100 -172 212q-80 112 -76 254q0 98 50 200q48 100 152 168q56 36 128 56q72 22 162 22q230 0 346 -134q118 -132 118 -300q0 -62 -22 -120q-20 -58 -58 -110q-68 -98 -176 -178 q-106 -80 -218 -136q196 -194 586 -580q82 132 126 282q46 152 46 304q0 8 -2 22v26q-10 -4 -20 -6q-10 -4 -22 -2q-56 2 -84 38t-24 82q2 52 36 80q36 28 90 26q60 -4 104 -66q46 -64 42 -198v-2q0 -170 -54 -346q-56 -174 -152 -324q100 -98 298 -294q18 -16 22 -34 q2 -4 2 -8q0 -14 -12 -24q-16 -14 -46 -44q-18 -16 -32 -10q-16 6 -26 16q-96 96 -286 290q-124 -144 -292 -230q-166 -86 -372 -86q-258 0 -400 158q-144 156 -144 368zM208 498q0 -172 118 -292q118 -118 304 -118q178 0 324 76q148 78 256 206q-208 212 -624 632 q-140 -76 -258 -196q-120 -122 -120 -308zM338 1584q-2 -98 56 -186q60 -92 138 -172q22 -20 42 -40q20 -22 42 -44q102 52 200 118q98 64 158 146q34 44 52 92q20 50 20 104q0 120 -86 222q-88 102 -262 102q-184 0 -272 -108t-88 -228v-6z" />
<glyph unicode="'" horiz-adv-x="448" d="M82 1412v6q4 12 18 24q8 4 42 34q36 30 70 86q16 30 30 68t18 84q2 32 -2 60t-12 48q-10 -6 -22 -10q-10 -4 -24 -4q-56 0 -84 36q-30 34 -30 80q0 50 34 80q32 30 86 30q62 0 112 -62q48 -64 48 -206q0 -112 -38 -194q-40 -82 -86 -134q-24 -28 -46 -46t-36 -26t-28 -10 h-2q-10 0 -18 10l-24 30q-6 8 -6 16z" />
<glyph unicode="(" horiz-adv-x="1136" d="M286 904q0 188 22 338t62 268q74 220 194 338q120 116 254 160q90 34 156 34q28 0 50 -6q76 -22 100 -78q12 -30 12 -54q0 -20 -8 -40q-14 -42 -62 -60q-42 -18 -86 -4q-44 16 -64 68q-4 12 -6 22q0 12 2 26q-2 0 -2 -2h-4q-220 -60 -356 -298q-138 -240 -138 -712 q0 -514 162 -752q160 -240 412 -274q12 0 18 -10q8 -10 6 -24q-2 -16 -4 -44q0 -12 -10 -18q-6 -6 -16 -6q-4 0 -8 2q-160 6 -316 106q-156 98 -254 332q-54 126 -84 298q-32 170 -32 390z" />
<glyph unicode=")" horiz-adv-x="1182" d="M0 -94q0 24 10 46q18 40 68 56q42 14 84 -2q42 -18 60 -72q4 -12 4 -24t-4 -24h16q10 2 18 2q228 54 370 294q142 238 142 722q0 514 -160 752q-160 240 -410 274q-14 0 -22 10q-6 10 -4 24q0 16 2 44q2 12 12 20q8 6 26 6q160 -8 316 -108q154 -100 252 -334 q54 -126 84 -298q30 -170 30 -390q0 -370 -82 -600q-80 -232 -204 -354q-68 -68 -144 -106t-154 -56q-82 -26 -142 -26q-36 0 -66 12q-74 26 -94 84q-8 26 -8 48z" />
<glyph unicode="*" horiz-adv-x="860" d="M40 1782q0 10 4 18q6 10 18 28q6 12 18 14q14 2 28 -8q86 -52 256 -158q-2 100 -4 296q0 16 12 26q10 12 26 12h22q16 0 26 -12q12 -10 12 -26q0 -98 -2 -296l252 162q14 8 28 4q12 -6 20 -16q6 -8 14 -22t4 -28q-2 -14 -14 -22q-88 -54 -264 -160q88 -54 266 -160 q10 -8 14 -22q2 -6 2 -10q0 -8 -4 -14q-6 -10 -14 -26q-10 -14 -24 -18q-16 -2 -28 6q-84 54 -252 160q0 -98 2 -294q0 -16 -12 -28q-10 -10 -26 -10h-22t-26 10q-12 12 -12 28q2 98 4 294q-84 -52 -254 -158q-12 -8 -26 -4t-22 16q-4 8 -14 24q-8 12 -4 26q4 16 16 22 q86 52 260 158q-88 52 -264 158q-10 6 -14 20q-2 6 -2 10z" />
<glyph unicode="+" horiz-adv-x="1262" d="M40 974v44q0 14 12 26q12 10 26 10h494v496q0 16 10 26q12 10 26 10h46q16 0 26 -10q12 -10 12 -26v-496h490q16 0 26 -10q12 -12 12 -26v-44q0 -14 -12 -26q-10 -12 -26 -12h-490v-490q0 -14 -12 -26q-10 -10 -26 -10h-46q-14 0 -26 10q-10 12 -10 26v490h-494 q-14 0 -26 12t-12 26z" />
<glyph unicode="," horiz-adv-x="614" d="M164 -416q2 12 18 24q8 6 42 34q36 30 70 86q16 30 30 68t18 84q2 32 -2 60t-12 48q-10 -6 -22 -10q-10 -4 -24 -4q-56 0 -84 36q-30 34 -30 80q0 50 34 82q32 30 86 30q62 0 112 -64q48 -64 48 -206q0 -112 -38 -194q-40 -82 -86 -134q-24 -26 -46 -44t-36 -28 q-14 -8 -28 -8h-2q-10 0 -18 8l-24 30q-6 8 -6 16v6z" />
<glyph unicode="-" horiz-adv-x="884" d="M82 702v32q0 16 10 26t24 10h648q16 0 26 -10q12 -10 12 -26v-32q0 -16 -12 -26q-10 -12 -26 -12h-648q-14 0 -24 12q-10 10 -10 26z" />
<glyph unicode="." horiz-adv-x="560" d="M164 86q0 50 34 82q36 34 84 34t82 -34q32 -32 32 -82q0 -46 -32 -80q-34 -34 -82 -34t-84 34q-34 34 -34 80z" />
<glyph unicode="/" horiz-adv-x="750" d="M0 28q0 6 2 14q212 648 634 1944q4 12 14 18t24 6h40q18 0 30 -12q6 -8 6 -16q0 -6 -2 -12q-212 -648 -634 -1942q-4 -14 -16 -20q-10 -6 -22 -6h-42q-18 0 -28 10q-6 6 -6 16z" />
<glyph unicode="0" horiz-adv-x="1570" d="M82 976q0 470 184 738t518 268q336 0 520 -268t184 -738q0 -472 -184 -740t-520 -268q-334 0 -518 268t-184 740zM208 976q0 -424 150 -658q150 -232 426 -232t426 232q148 234 148 658q0 418 -148 652q-150 234 -426 234t-426 -234t-150 -652z" />
<glyph unicode="1" horiz-adv-x="908" d="M84 1448q0 26 8 54q22 76 132 156q118 98 352 296h42q18 0 30 -8q14 -10 14 -26v-1228v-654q0 -16 -12 -26q-10 -12 -26 -12h-58q-14 0 -26 12q-10 10 -10 26v1724q-90 -74 -268 -220q-2 -4 -4 -6l-4 -4q12 -4 22 -12q10 -6 18 -16q32 -46 20 -90t-48 -70 q-42 -30 -86 -20t-76 54q-20 30 -20 70z" />
<glyph unicode="2" horiz-adv-x="1378" d="M82 34v52q254 254 760 764q150 150 234 288q84 140 84 280q0 106 -48 206q-50 100 -152 162q-54 34 -124 54t-158 20q-156 0 -254 -70q-100 -70 -146 -124q8 -4 18 -8q8 -6 14 -14q36 -44 28 -88q-10 -46 -44 -74q-40 -32 -84 -26q-46 8 -80 48q-32 42 -26 104 q8 62 76 136q16 22 44 48q26 26 62 56q66 50 164 92t228 42q106 0 194 -22q90 -24 160 -64q130 -76 196 -204q68 -126 68 -272q0 -190 -104 -342q-102 -154 -258 -308q-218 -218 -654 -652h964q16 0 26 -12q12 -10 12 -26v-42q0 -16 -12 -26q-10 -12 -26 -12h-1124 q-18 0 -28 10q-10 12 -10 24z" />
<glyph unicode="3" horiz-adv-x="1418" d="M84 1586q0 20 4 42q16 78 120 166q62 56 182 122q122 66 292 66q248 0 414 -142q164 -140 168 -368q4 -168 -96 -294q-100 -124 -218 -168v-4v-2q140 -44 260 -176q122 -132 124 -304v-14q0 -226 -166 -380q-172 -160 -470 -160q-94 0 -170 16t-136 40q-114 44 -182 104 q-66 60 -98 96q-10 12 -10 26t10 22q14 14 44 38q16 12 28 8t24 -16q34 -32 86 -82q54 -52 146 -90q50 -20 114 -34q66 -12 146 -12q222 0 364 116q140 118 136 314q-2 72 -26 132q-24 62 -64 110q-74 88 -194 132q-118 44 -240 44h-268q-22 0 -30 8t-8 30v52q-2 16 8 26 q10 8 30 8h264q56 0 114 10q56 10 110 34q98 40 168 128q68 86 66 226q-4 182 -132 294q-130 112 -312 112t-288 -76t-144 -120q10 -4 18 -10q8 -4 16 -14q36 -42 28 -88q-6 -44 -42 -72q-38 -34 -84 -26q-44 6 -78 48q-28 34 -28 82z" />
<glyph unicode="4" horiz-adv-x="1740" d="M0 492v48q392 482 1174 1446h52q14 0 22 -6t8 -26q0 -348 2 -696q2 -350 2 -698h168q8 2 18 4l16 4q-6 12 -8 22q-4 12 -4 24q4 56 40 84t82 24q52 -2 80 -36q26 -32 26 -80q0 -4 -2 -10q-2 -50 -48 -92q-46 -40 -140 -52h-6h-4h-10q-16 -2 -32 -2h-38v2h-138v-414 q0 -16 -12 -26q-10 -12 -26 -12q-26 0 -58 2q-34 2 -34 36v410h-1082q-20 0 -34 10t-14 34zM160 564h976v1192q-324 -398 -976 -1192z" />
<glyph unicode="5" horiz-adv-x="1414" d="M82 244v2q0 10 16 28q10 8 20 18t20 18q12 12 26 10q12 0 22 -16q14 -16 36 -38q22 -24 52 -50q60 -46 154 -88q96 -42 232 -42q156 0 276 74t188 190q36 62 56 134q20 70 20 144q0 216 -136 346q-134 132 -404 132h-476q-26 0 -40 18q-14 20 -14 42v748q0 16 10 26 q10 12 26 12h682h32q116 0 174 -40q66 -46 70 -110q2 -52 -28 -88q-28 -34 -80 -36q-44 -2 -80 26t-40 84q0 12 4 22q2 10 8 22h-658v-606h410q330 0 500 -156q172 -158 172 -442q0 -94 -26 -182q-24 -88 -70 -164q-86 -140 -236 -226q-152 -88 -342 -88q-84 0 -154 14 t-128 34q-106 40 -174 96q-66 56 -102 98q-16 22 -18 34z" />
<glyph unicode="6" horiz-adv-x="1476" d="M82 788q0 332 142 566q140 234 320 384q96 80 192 138t174 94q106 64 182 64h18q80 -10 112 -62q28 -46 18 -90q-8 -44 -52 -72q-38 -22 -84 -16q-44 8 -74 56q-4 8 -8 18q-2 10 -2 20q-96 -38 -264 -144q-168 -104 -310 -274q-76 -92 -132 -204q-58 -110 -80 -240 q12 16 38 40t64 52q70 50 182 94q110 46 252 46q160 0 300 -74t226 -208q46 -70 72 -158t26 -188q0 -178 -86 -326q-84 -148 -220 -236q-74 -46 -158 -72q-86 -26 -176 -26q-118 0 -216 32q-96 32 -172 88q-142 108 -214 292q-70 182 -70 406zM206 766q0 -170 56 -324 q58 -154 174 -250q62 -50 142 -80q80 -28 176 -28q74 0 142 22t126 60q110 72 178 194q66 120 66 264q0 148 -66 262q-68 116 -176 182q-58 34 -126 54q-68 18 -138 18q-92 0 -168 -22t-138 -56q-114 -62 -176 -132q-62 -72 -66 -76q-4 -22 -4 -42q-2 -22 -2 -46z" />
<glyph unicode="7" horiz-adv-x="1328" d="M0 1874v42q0 20 12 30q10 8 26 8h1188q18 0 28 -10q12 -12 12 -24v-14q-282 -620 -844 -1860q-14 -28 -22 -38q-10 -8 -32 -8h-70q-22 0 -24 16t4 30q134 294 404 880q-32 34 -90 70q-60 38 -146 48q-34 2 -60 -2q-28 -4 -50 -14q6 -10 10 -22q4 -10 4 -24q0 -54 -34 -84 q-36 -30 -80 -30q-52 0 -82 34q-30 32 -30 86q0 64 64 112q64 50 206 50q114 0 196 -42q84 -40 134 -86q124 270 372 812h-1058q-24 0 -32 12q-6 10 -6 28z" />
<glyph unicode="8" horiz-adv-x="1450" d="M82 512q0 186 130 314q130 130 300 170v4v2q-150 44 -264 162q-114 120 -114 292q0 212 150 366q148 152 434 152q290 0 444 -152q154 -154 154 -366q0 -172 -114 -292q-114 -118 -264 -162v-2v-4q170 -40 300 -166q130 -124 130 -318q0 -256 -180 -400 q-180 -142 -470 -142q-280 0 -458 142q-178 144 -178 400zM214 500q0 -208 148 -316q148 -106 356 -106q218 0 368 106q150 104 150 316q0 162 -138 284q-136 122 -374 140q-238 -18 -374 -138q-136 -118 -136 -286zM262 1452q0 -166 124 -268q124 -104 338 -118 q214 14 338 118q124 102 124 268t-120 290q-122 124 -350 124q-222 0 -338 -124t-116 -290z" />
<glyph unicode="9" horiz-adv-x="1476" d="M82 1336q0 96 26 184t72 164q86 140 228 226q144 86 314 86q216 0 364 -106q148 -104 224 -280q42 -92 62 -202q22 -110 22 -230q0 -194 -52 -354t-134 -288q-54 -84 -118 -154q-64 -72 -130 -130q-126 -110 -250 -180q-126 -70 -216 -108q-82 -38 -144 -38q-18 0 -36 2 q-70 16 -96 66q-26 48 -16 92t56 68q40 22 84 12q46 -10 72 -58q6 -10 8 -22q2 -10 0 -22h2q52 18 148 68q98 50 206 130q60 44 118 98q58 52 112 114q82 94 144 212q62 116 86 254q-12 -16 -38 -40q-24 -26 -62 -52q-70 -50 -180 -96q-110 -44 -254 -44q-158 0 -300 72 q-140 74 -224 208q-46 72 -72 160q-26 86 -26 188zM208 1342q0 -80 20 -152q20 -70 58 -130q66 -108 180 -172t248 -64q90 0 168 24q76 22 138 54q114 62 176 134q62 70 66 76q2 22 4 42v44q0 170 -56 324q-56 156 -172 250q-62 52 -140 80q-80 28 -176 28q-138 0 -254 -70 q-116 -72 -182 -186q-38 -62 -58 -134t-20 -148z" />
<glyph unicode=":" horiz-adv-x="722" d="M246 88q0 48 34 82q36 32 84 32t82 -32q32 -34 32 -82t-32 -82q-34 -34 -82 -34t-84 34q-34 34 -34 82zM246 1060q0 50 34 84q36 34 84 34t82 -34q32 -34 32 -84q0 -46 -32 -80q-34 -36 -82 -36t-84 36q-34 34 -34 80z" />
<glyph unicode=";" horiz-adv-x="776" d="M246 -416q2 12 18 22q4 4 16 14q14 10 32 28q32 32 68 88q36 58 44 144q2 32 -2 60q-4 26 -12 48q-10 -6 -22 -10q-10 -4 -24 -4q-56 0 -86 34q-28 36 -28 80q0 52 32 82q34 30 88 30q62 0 112 -64q48 -62 48 -204q0 -62 -12 -114t-32 -94q-38 -80 -86 -128 q-50 -48 -76 -64q-14 -8 -28 -10h-2q-10 0 -18 10l-24 30q-6 8 -6 16v6zM250 1062q0 48 34 82t80 34q50 0 82 -34q34 -34 34 -82q0 -46 -34 -80q-32 -36 -82 -36q-46 0 -80 36q-34 34 -34 80z" />
<glyph unicode="&#x3c;" horiz-adv-x="1204" d="M40 674v2q0 12 6 22q6 8 24 20q338 214 1012 642q10 6 16 6t12 -4q12 -8 12 -30v-66q0 -10 -4 -22q-4 -14 -18 -22q-292 -182 -872 -548q290 -176 872 -530q14 -10 18 -22q4 -14 4 -22v-66q0 -24 -12 -32q-6 -2 -12 -2t-16 6q-338 208 -1012 622q-18 10 -24 20t-6 26z " />
<glyph unicode="=" horiz-adv-x="1100" d="M40 492v50q0 14 8 26q6 10 30 10h904q14 0 26 -10q10 -12 10 -26v-50q0 -14 -10 -26q-12 -10 -26 -10h-904q-24 0 -30 10q-8 12 -8 26zM40 1088v50q0 14 8 26q6 10 30 10h904q14 0 26 -10q10 -12 10 -26v-50q0 -14 -10 -26q-12 -10 -26 -10h-904q-24 0 -30 10 q-8 12 -8 26z" />
<glyph unicode="&#x3e;" horiz-adv-x="1204" d="M82 34v66q0 10 4 22q4 14 18 22q292 176 874 530q-292 184 -874 548q-14 10 -18 22q-4 14 -4 22v66q0 24 12 32q6 2 12 2q8 0 16 -6q338 -214 1012 -642q18 -12 24 -20q6 -10 6 -20v-4q0 -14 -6 -24t-24 -22q-336 -206 -1012 -622q-8 -6 -16 -6q-6 0 -12 4q-12 8 -12 30z " />
<glyph unicode="?" horiz-adv-x="1218" d="M82 1632q0 8 2 16q4 72 86 166q12 14 34 38t56 50q62 50 162 94t242 44q218 0 346 -114t128 -292q0 -64 -18 -116q-18 -54 -46 -98q-54 -82 -134 -140t-148 -108q-58 -42 -98 -86q-38 -42 -38 -96v-164q0 -20 -10 -30q-8 -10 -28 -10h-54q-20 0 -28 12q-6 12 -6 28v166 q0 74 38 128q38 56 96 106q38 30 78 60q42 30 82 60q74 56 128 122q56 66 56 158q0 112 -92 206q-90 92 -260 92q-68 0 -122 -12q-54 -14 -98 -34q-82 -38 -128 -84q-44 -48 -62 -66l-4 -8q-2 -2 -2 -6q12 -4 22 -8q10 -6 20 -14q40 -40 38 -84q-4 -46 -36 -78 q-36 -38 -80 -36q-46 2 -84 40q-38 36 -38 98zM474 88q0 50 34 82q34 34 82 34t82 -34q34 -32 34 -82q0 -46 -34 -80t-82 -34t-82 34t-34 80z" />
<glyph unicode="@" horiz-adv-x="2734" d="M102 646q0 214 46 404t134 350q162 296 454 468t686 172q200 0 372 -46q170 -46 308 -130q256 -156 394 -426q136 -270 136 -606q0 -100 -12 -204q-14 -106 -44 -206q-54 -184 -180 -316t-352 -132q-142 0 -220 66t-102 160q-36 -58 -138 -142t-272 -84q-232 0 -380 170 q-150 172 -150 438q0 176 74 308q74 134 194 206q64 40 138 62q76 20 156 20q62 0 112 -10q52 -10 90 -24q76 -30 114 -60l38 -32q2 22 8 64q2 16 10 26q8 8 30 8h28q16 0 26 -12q12 -10 12 -26v-720q0 -162 62 -238q62 -74 176 -74q84 0 152 30q68 32 122 86 q98 102 146 270q48 170 48 366q0 164 -36 314q-36 148 -104 274q-128 236 -370 374t-590 138q-192 0 -360 -44q-166 -46 -304 -132q-254 -160 -396 -448q-140 -286 -140 -662q0 -428 224 -730t576 -452q0 -2 2 -2t2 -2h2q0 14 2 24q2 12 8 24q26 48 72 58q44 8 84 -12 q46 -26 56 -70q10 -42 -16 -90t-90 -64q-20 -6 -40 -6q-54 0 -126 30q-248 106 -442 284t-306 418q-60 130 -92 278t-32 312zM906 582q0 -220 118 -354q116 -134 298 -134q66 0 118 18q54 16 94 44q76 48 112 112q36 62 46 90v542q-2 4 -14 18q-10 14 -32 34q-38 36 -112 74 t-184 38q-182 0 -314 -132q-130 -130 -130 -350z" />
<glyph unicode="A" horiz-adv-x="1908" d="M20 16q0 6 4 16q294 666 884 1996q4 10 14 14q10 6 20 6h8q12 0 22 -2q10 -4 16 -18q292 -666 876 -1996q2 -8 2 -14t-2 -10q-4 -10 -26 -10h-76q-14 0 -24 8q-12 8 -16 16q-78 176 -232 528h-780q-6 0 -10 -2q-6 -2 -10 -2q6 -12 8 -24q4 -10 4 -24q-4 -56 -40 -82 q-34 -26 -76 -26h-6q-50 2 -80 38q-24 30 -24 75v13q2 62 66 106q58 41 173 41q15 0 31 -1h696l-492 1158h-6q-260 -600 -780 -1798q-4 -8 -14 -16t-26 -8h-80q-16 0 -20 8q-4 4 -4 10z" />
<glyph unicode="B" horiz-adv-x="1552" d="M164 34v726v1208q0 16 10 26q12 12 28 12h610q266 0 430 -142t164 -378q0 -170 -90 -290q-92 -120 -226 -174q154 -42 266 -158q114 -116 114 -322q0 -240 -176 -392t-456 -152h-184h-22q-122 0 -180 42q-64 48 -66 108v7q0 49 28 81q28 36 80 38q44 0 80 -28t38 -84 q0 -12 -2 -24q-4 -10 -10 -20h250q208 0 340 120q134 120 134 308q0 190 -144 298t-348 108h-536v-918q0 -16 -12 -26q-14 -10 -28 -10h-54q-16 0 -26 10q-12 12 -12 26zM298 1076h534q202 0 316 114q112 114 112 290q0 188 -120 294q-122 106 -328 106h-514v-804z" />
<glyph unicode="C" horiz-adv-x="1970" d="M40 1000q0 152 42 290q40 138 114 258q138 220 372 354q232 134 512 134q220 0 388 -70q170 -70 308 -196l4 -4t2 -4q50 -48 62 -96q2 -16 2 -32q0 -30 -12 -54q-24 -50 -66 -66q-18 -7 -36 -7q-25 0 -52 13q-40 20 -58 62q-8 18 -8 37q0 26 14 55q4 8 10 16l12 12 q-118 96 -262 150q-144 56 -308 56q-244 0 -446 -120q-200 -118 -318 -312q-62 -104 -96 -224q-36 -120 -36 -252q0 -128 36 -248q34 -120 96 -224q118 -192 318 -310t446 -118q184 0 330 66q146 68 276 174q12 12 24 12q12 2 22 -6l48 -48q10 -8 10 -24q0 -14 -10 -24 q-146 -142 -328 -212q-180 -68 -372 -68q-280 0 -514 134q-232 132 -370 350q-74 118 -114 258q-42 138 -42 288z" />
<glyph unicode="D" horiz-adv-x="1900" d="M164 34v726v1208q0 16 10 26q12 12 24 12h608q146 0 282 -40q134 -40 250 -110q216 -134 346 -358q132 -226 132 -494q0 -146 -40 -282q-40 -134 -112 -250q-134 -214 -360 -344t-498 -130h-150h-11q-127 0 -187 44q-62 46 -64 106v7q0 49 26 83q30 34 82 36q44 0 80 -28 t38 -84q0 -12 -2 -22l-8 -20h174q132 0 252 34q118 34 222 96q188 114 302 312t114 442q0 242 -114 438t-302 312q-102 60 -222 94t-252 34h-486v-1848q0 -16 -12 -26q-14 -10 -28 -10h-56q-16 0 -26 10q-12 12 -12 26z" />
<glyph unicode="E" horiz-adv-x="1470" d="M164 38v724v1210q0 14 10 26q12 10 28 10h1150q14 0 26 -10q12 -12 12 -26v-50q0 -14 -12 -26q-12 -10 -26 -10h-1050v-792h910q14 0 26 -12q10 -12 10 -26v-48q0 -16 -10 -28q-12 -10 -26 -10h-910v-850h872q-6 10 -8 22q-4 10 -4 22q4 56 40 84q34 26 76 26h6 q52 -4 80 -38q26 -32 26 -80q0 -4 -2 -10q-2 -56 -58 -100q-54 -42 -172 -46h-956q-16 0 -28 12q-10 10 -10 26z" />
<glyph unicode="F" horiz-adv-x="1470" d="M164 36v726v1208q0 14 10 26q12 12 28 12h934v-2h11q122 0 179 -44q60 -44 62 -104q2 -4 2 -8q0 -48 -28 -80q-28 -36 -80 -38h-6q-41 0 -74 26q-36 28 -40 84q0 12 4 22q2 10 6 20h-870v-872h910q14 0 26 -12q10 -10 10 -26q0 -24 -2 -54t-34 -30h-910q-2 -284 -4 -854 q0 -16 -12 -26q-12 -12 -34 -12h-50q-16 0 -28 12q-10 10 -10 26z" />
<glyph unicode="G" horiz-adv-x="2016" d="M40 1000q0 152 42 290q40 138 114 256q138 222 370 356t514 134q196 0 352 -58q158 -58 288 -162q102 -74 122 -144q8 -28 8 -52v-7q0 -34 -18 -61q-30 -44 -72 -56q-13 -4 -26 -4l-62 20q-38 24 -50 68q-4 14 -4 28q0 31 20 62q4 6 10 12q4 4 10 8q-118 102 -266 162 q-148 58 -316 58q-130 0 -250 -36t-222 -100q-190 -120 -304 -324q-116 -202 -116 -444q0 -130 36 -250q34 -122 96 -224q118 -194 318 -312t442 -118q172 0 298 34q128 34 202 70q42 18 66 34q24 14 32 20v540h-492q-22 0 -30 8q-6 10 -6 28v58q0 18 6 26q8 8 30 8h590 q14 0 26 -10q10 -10 10 -24v-666q0 -32 -12 -46q-10 -16 -28 -28q-14 -10 -46 -28t-80 -40q-92 -40 -236 -78t-326 -38q-152 0 -290 40q-140 40 -258 112q-222 136 -356 366q-136 232 -136 512z" />
<glyph unicode="H" horiz-adv-x="1886" d="M164 34v726v1208q0 16 10 26q12 12 28 12h60q16 0 26 -12q10 -10 10 -26v-1934q0 -14 -10 -26q-10 -10 -26 -10h-60q-16 0 -28 10q-10 12 -10 26zM400 932v10q4 62 70 108q56 39 171 39q16 0 33 -1h914v880q0 16 10 26q12 12 26 12h60q18 0 28 -12q10 -10 10 -26v-1934 q0 -14 -10 -26q-10 -10 -28 -10h-60q-14 0 -26 10q-10 12 -10 26v932h-972q6 -10 8 -20q4 -10 2 -22q-2 -56 -40 -84q-33 -24 -74 -24h-6q-52 2 -80 38q-26 32 -26 78z" />
<glyph unicode="I" horiz-adv-x="466" d="M164 34v726v1208q0 16 10 26q12 12 28 12h62q16 0 26 -12q12 -10 12 -26v-1934q0 -16 -12 -26q-14 -10 -28 -10h-60q-16 0 -28 10q-10 12 -10 26z" />
<glyph unicode="J" d="M0 342q0 50 30 84q36 42 80 46q7 1 13 1q37 0 71 -29q34 -30 40 -76q1 -6 1 -13q0 -37 -31 -73q-8 -8 -16 -14t-18 -8q48 -50 128 -108t212 -58q184 0 302 126q118 128 118 384v1368q0 18 12 28q10 10 28 10h58q14 0 26 -12q10 -10 10 -26v-1366q0 -300 -150 -466 q-150 -168 -406 -168q-168 0 -272 70q-102 70 -148 124q-78 82 -86 150q-2 14 -2 26z" />
<glyph unicode="K" d="M0 34v724v1204q0 20 12 32t32 12h50q20 0 32 -12t12 -32v-886q264 246 790 736q-8 4 -14 10q-8 6 -14 14q-23 32 -23 65q0 12 3 25q10 44 48 70q32 22 64 22q10 0 22 -2q44 -10 74 -54q22 -30 23 -70q0 -25 -9 -54q-20 -74 -128 -154q-236 -218 -704 -654 q344 -328 1030 -984q8 -8 8 -20v-10q-6 -18 -34 -18h-92q-20 0 -32 4q-14 6 -30 24q-328 318 -982 952v-944q0 -22 -14 -30q-12 -6 -30 -6h-56q-18 0 -28 10t-10 26z" />
<glyph unicode="L" horiz-adv-x="1292" d="M164 34v726v1208q0 16 10 26q12 12 28 12h62q14 0 24 -12q10 -10 10 -26v-1850h738q-6 10 -8 20q-4 12 -2 24q2 56 38 82q35 26 76 26h6q52 -4 80 -38q26 -32 26 -80v-8q-4 -62 -68 -106q-57 -41 -170 -41q-15 0 -30 1h-2h-780q-16 0 -28 10q-10 12 -10 26z" />
<glyph unicode="M" horiz-adv-x="2188" d="M0 24q0 6 2 12q136 660 406 1980q4 8 10 14q8 6 16 6h32q12 0 18 -4q6 -6 10 -16q198 -588 592 -1762h2h4q198 588 594 1762q4 10 10 16q8 4 18 4h32q8 0 16 -6t10 -14q122 -594 366 -1784q2 0 2 -2v-4t2 -6q6 -34 6 -62q0 -44 -14 -76q-24 -52 -70 -70q-29 -13 -55 -13 q-19 0 -37 7q-42 16 -62 62q-9 22 -9 45q0 20 7 41q14 44 64 64q10 4 18 6h18l-288 1488h-4h-2q-192 -572 -580 -1718q-4 -14 -14 -18q-12 -6 -26 -6h-10q-12 0 -22 4q-12 4 -16 20q-194 572 -580 1718h-2h-4q-108 -560 -324 -1682q-2 -12 -12 -22t-22 -10h-68q-20 0 -28 8 q-6 6 -6 18z" />
<glyph unicode="N" horiz-adv-x="1932" d="M164 34v736v1226q0 18 12 28q14 10 30 10h50q458 -598 1376 -1794h4v1544q-8 -2 -16 -2q-8 -2 -16 0q-56 6 -82 44q-19 30 -19 66q0 9 1 18q6 50 42 76q31 21 71 21q9 0 19 -1q56 -6 94 -62q38 -53 38 -156v-10v-1774q0 -18 -14 -28q-14 -8 -32 -8h-38l-10 10 q-8 8 -52 64q-18 24 -46 58t-66 84q-52 68 -130 168q-76 100 -184 240q-152 200 -374 490q-220 290 -526 696h-4v-1744q0 -16 -10 -26q-12 -12 -26 -12h-54q-16 0 -28 12q-10 10 -10 26z" />
<glyph unicode="O" horiz-adv-x="2234" d="M82 1000q0 280 134 512q134 234 354 370q118 74 256 114t288 40q152 0 290 -40q140 -40 258 -114q222 -136 354 -368q134 -234 134 -514t-132 -510q-134 -232 -356 -366q-118 -74 -256 -114q-140 -40 -292 -40q-278 0 -510 134q-232 132 -368 350q-74 120 -114 258 t-40 288zM208 1000q0 -244 118 -446t310 -322q104 -64 226 -100q120 -34 252 -34t254 34q122 36 226 100q194 118 312 322q118 202 118 446q0 132 -36 254t-100 226q-120 194 -324 312t-450 118q-130 0 -252 -36q-120 -34 -226 -100q-192 -120 -310 -324t-118 -450z" />
<glyph unicode="P" horiz-adv-x="1508" d="M164 36v726v1208q0 14 10 26q12 12 28 12h616q174 0 318 -84q146 -84 232 -222q48 -74 72 -160q26 -84 26 -178t-24 -180q-26 -88 -74 -162q-84 -138 -230 -224q-144 -86 -318 -86h-208q2 -6 4 -14v-18q-2 -56 -40 -82q-34 -26 -74 -26h-6q-52 4 -80 38q-26 34 -26 83v7 q4 56 58 98q56 44 170 46h4q6 2 12 2t12 -2h166q138 0 254 68t186 180q38 58 58 128q22 70 22 148q0 74 -22 140q-20 68 -58 126q-70 108 -186 174q-118 64 -256 64h-512v-1836q0 -16 -12 -26q-12 -12 -34 -12h-50q-16 0 -28 12q-10 10 -10 26z" />
<glyph unicode="Q" horiz-adv-x="2234" d="M82 1000q0 280 134 512t354 370q118 74 256 114t288 40q282 0 514 -134t368 -356q74 -118 114 -256q40 -140 40 -290q0 -328 -178 -584q-180 -258 -466 -372q112 -184 340 -556q8 -10 2 -26q-4 -16 -22 -16h-94q-6 0 -16 4q-10 6 -22 24l-318 528q-60 -16 -128 -24 t-134 -8q-278 0 -510 132q-232 134 -368 352q-74 118 -114 256q-40 140 -40 290zM208 1000q0 -244 118 -446q118 -204 310 -322q104 -64 226 -100q120 -36 252 -36q52 0 102 6t98 16q-16 28 -50 84v2q-47 79 -47 139q0 6 1 13q8 62 48 96q41 30 83 30h5q44 -4 76 -44 q26 -34 26 -74v-6q0 -46 -44 -82q-8 -6 -18 -10q-8 -2 -18 -4q22 -36 64 -106q256 96 420 326q164 228 164 518q0 246 -118 450t-312 324q-104 64 -226 100t-254 36q-130 0 -252 -36q-120 -36 -226 -100q-192 -120 -310 -324t-118 -450z" />
<glyph unicode="R" horiz-adv-x="1636" d="M164 36v726v1208q0 14 10 26t28 12h710q92 0 178 -24t158 -66q138 -80 220 -218q84 -136 84 -308q0 -216 -134 -378t-338 -220q138 -248 418 -744q10 -18 6 -34q-4 -18 -26 -18h-88q-16 0 -26 6q-8 8 -16 20q-138 250 -416 752q-28 -2 -52 -2h-54h-220q6 -12 8 -22 q4 -10 2 -22q-2 -56 -38 -84q-33 -24 -71 -24h-11q-52 2 -80 36q-26 34 -26 83v7q4 56 58 100q56 42 172 46h12h2h2h270q74 0 140 18q68 20 126 54q108 64 176 176q66 112 66 250q0 134 -66 242q-68 108 -176 170q-58 34 -126 52q-68 20 -142 20h-602q-2 -614 -4 -1840 q0 -16 -12 -26q-12 -12 -34 -12h-50q-16 0 -28 12q-10 10 -10 26z" />
<glyph unicode="S" horiz-adv-x="1500" d="M164 230v8q0 12 12 28q8 12 26 34q14 18 30 22q16 6 32 -10q8 -6 32 -26q24 -22 62 -48q70 -48 184 -98q112 -48 254 -48q128 0 236 50t172 132q36 46 54 96q20 52 20 106q0 192 -148 296t-410 192q-162 56 -284 122q-124 64 -192 166q-38 54 -58 122q-18 68 -18 154 q0 58 16 120q16 60 50 120q66 108 200 188t352 80q150 0 266 -40q116 -42 176 -74q14 -6 26 -14l24 -16h2v-2q2 0 2 -2q2 0 4 -2q48 -38 64 -80q9 -24 9 -47q0 -18 -5 -35q-16 -52 -54 -74q-24 -15 -53 -15q-17 0 -35 5q-44 14 -68 52q-16 24 -16 53q0 18 6 39q4 8 8 14 q4 8 8 14q-56 30 -154 66t-212 36q-92 0 -166 -20q-72 -18 -128 -50q-100 -56 -146 -144q-44 -88 -44 -168q0 -184 128 -278q130 -96 348 -168q294 -100 468 -228q174 -126 174 -376q0 -140 -84 -254q-86 -114 -218 -182q-72 -36 -154 -56t-170 -20q-166 0 -294 52t-208 102 q-42 28 -68 50q-28 24 -38 32q-12 10 -20 24z" />
<glyph unicode="T" horiz-adv-x="1494" d="M40 1926v42q0 18 12 28t26 10h1110h11q127 0 187 -44q62 -44 66 -106v-6q0 -50 -26 -82q-30 -34 -80 -36h-7q-42 0 -75 24q-36 28 -38 84q0 12 2 22t8 20h-474v-1848q0 -14 -14 -26q-12 -10 -32 -10h-52q-16 0 -26 10q-12 12 -12 26v1848h-548q-22 0 -30 12t-8 32z" />
<glyph unicode="U" horiz-adv-x="1670" d="M164 730v466v774q0 14 10 26q12 10 28 10h60q14 0 26 -10q10 -12 10 -26v-1226q0 -278 164 -460t450 -182q290 0 454 180q166 182 166 458v1044q-6 -2 -12 -2q-6 -2 -14 0q-56 6 -80 44q-21 31 -21 67q0 8 1 17q6 50 44 76q28 22 68 22q10 0 22 -2q60 -8 100 -74 q30 -50 30 -138q0 -28 -2 -62v-1002q0 -116 -28 -220q-26 -102 -76 -190q-94 -162 -262 -256q-166 -94 -390 -94q-220 0 -386 94q-168 96 -260 256q-50 88 -76 192q-26 102 -26 218z" />
<glyph unicode="V" horiz-adv-x="1850" d="M40 1990q0 4 4 8q6 10 24 10h78q14 0 22 -6t10 -14l774 -1782h2h4q236 536 706 1606q-10 0 -18 2t-18 8q-50 26 -58 70q-3 15 -3 30q0 29 13 54q26 46 68 58q14 2 28 2q30 0 64 -18q48 -26 66 -90q4 -20 4 -40q0 -56 -30 -128v-2q-2 -2 -4 -6q-2 -6 -4 -10q-2 -6 -4 -10 q-258 -578 -776 -1734q-4 -12 -12 -18q-8 -8 -22 -8h-14q-12 0 -22 10q-8 8 -10 16q-288 658 -866 1974q-6 10 -6 18z" />
<glyph unicode="W" horiz-adv-x="2398" d="M40 1984q0 10 6 16q8 8 28 8h68q14 0 24 -10q10 -8 12 -22q160 -560 482 -1680h4h2q168 570 504 1714q4 14 18 20q12 6 26 6h4q14 0 26 -6q14 -6 18 -20q170 -572 508 -1714h2h4q144 504 432 1516q-8 0 -16 2t-16 6q-50 28 -60 72q-2 13 -2 25q0 31 14 59q24 46 68 56 q14 4 28 4q31 0 64 -18q48 -26 66 -92q4 -18 4 -40q0 -54 -30 -128q-168 -590 -506 -1768q-2 -8 -10 -14t-16 -6h-32q-10 0 -18 6q-6 4 -10 14q-172 584 -518 1748h-4q-174 -582 -518 -1748q-4 -10 -10 -14q-8 -6 -18 -6h-32q-8 0 -16 6t-10 14q-188 660 -568 1980 q-2 8 -2 14z" />
<glyph unicode="X" horiz-adv-x="1602" d="M82 24q0 8 6 20l624 984q-196 312 -588 938q-12 16 -6 30q6 12 28 12h92q10 0 20 -4t18 -12q172 -282 518 -844h4q138 222 416 668q-6 2 -10 4q-4 4 -8 6q-44 36 -46 82v6q0 41 26 74q32 40 78 44h8q40 0 78 -32q48 -36 48 -118q0 -75 -78 -178q-142 -226 -426 -676 q210 -328 628 -984q6 -12 6 -20q0 -6 -2 -12q-6 -12 -28 -12h-90q-12 0 -22 4t-16 14q-188 294 -562 886h-4q-184 -296 -554 -886q-6 -10 -16 -14t-20 -4h-92q-22 0 -28 12q-2 6 -2 12z" />
<glyph unicode="Y" horiz-adv-x="1682" d="M82 1986q0 6 2 10q8 14 28 14h88q10 0 20 -6q10 -4 16 -12q218 -298 654 -892q182 242 542 726q-8 2 -14 6q-8 4 -14 10q-42 38 -42 84q2 46 32 78q36 38 80 40q46 0 84 -36q42 -38 42 -106t-64 -156v-2q-194 -254 -580 -764v-942q0 -16 -10 -26q-12 -12 -26 -12 q-28 0 -64 2q-34 2 -34 36v938l-732 990q-8 12 -8 20z" />
<glyph unicode="Z" horiz-adv-x="1516" d="M82 34v52q388 596 1164 1790v6h-1038q-14 0 -26 12t-12 32v46q0 14 12 26q12 10 26 10h1182q18 0 28 -10q10 -12 10 -26v-46q-184 -282 -550 -844q32 -34 90 -70t144 -44q32 -2 60 2t48 12q-6 12 -10 22q-4 12 -4 24q0 56 34 86q36 28 80 28q52 0 82 -32q30 -34 30 -88 q0 -62 -64 -112q-62 -48 -204 -48q-120 0 -204 44q-86 44 -136 90q-188 -288 -564 -866v-4h1070q18 0 28 -10q10 -12 10 -28v-50q0 -16 -10 -26q-10 -12 -28 -12h-1208q-18 0 -28 10q-12 10 -12 24z" />
<glyph unicode="[" d="M0 222v1746q0 16 12 26q10 12 26 12h558q16 0 26 -12q12 -10 12 -26v-44q0 -14 -12 -26q-10 -10 -26 -10h-472v-2636h472q16 0 26 -12q12 -10 12 -26v-42q0 -16 -12 -26q-10 -12 -26 -12h-558q-16 0 -26 12q-12 10 -12 26v1050z" />
<glyph unicode="\" horiz-adv-x="750" d="M0 1980q0 10 6 18q10 10 28 10h42q12 0 22 -6q12 -8 16 -20q212 -648 634 -1942q2 -6 2 -12q0 -10 -6 -16q-12 -12 -30 -12h-40q-14 0 -24 6t-14 16q-212 650 -634 1946q-2 6 -2 12z" />
<glyph unicode="]" d="M-2 -782q0 16 12 26q10 12 26 12h470v2636h-470q-16 0 -26 10q-12 12 -12 26v44q0 14 12 26q10 10 26 10h556q16 0 26 -10q12 -12 12 -26v-1828v-968q0 -16 -12 -28q-10 -10 -26 -10h-556q-16 0 -26 12q-12 10 -12 26v42z" />
<glyph unicode="^" horiz-adv-x="1464" d="M82 1162v6q0 12 10 26l606 834q6 10 12 14q8 6 18 6h10q10 0 18 -6q6 -4 12 -14q202 -278 604 -834q10 -14 10 -26q-2 -2 -2 -6q-4 -14 -26 -14h-66q-14 0 -28 6q-12 8 -18 16q-170 236 -510 710q-170 -238 -512 -710q-6 -8 -18 -16q-12 -6 -28 -6h-66q-20 0 -26 14z" />
<glyph unicode="_" horiz-adv-x="1142" d="M82 -70q0 14 10 26q10 10 28 10h360h544q14 0 26 -10q10 -12 10 -26v-30q0 -14 -10 -24q-12 -10 -26 -10h-904q-18 0 -28 10t-10 24v30z" />
<glyph unicode="`" horiz-adv-x="1248" d="M370 1972q0 80 50 118q38 30 78 30h8q46 -4 76 -44q28 -36 26 -82t-46 -80q-10 -8 -22 -12q-10 -4 -22 -4q6 -22 20 -48q14 -24 34 -48q32 -32 66 -54t66 -36q60 -22 108 -24q46 -2 54 -2q20 0 28 -8q10 -8 10 -22v-36q-2 -14 -12 -22q-10 -6 -28 -8q-10 -2 -24 -2 q-28 0 -74 6q-68 8 -146 48q-42 22 -84 56q-42 32 -78 80q-88 112 -88 194z" />
<glyph unicode="a" horiz-adv-x="1096" d="M82 354q0 166 128 276t354 110q98 0 182 -20q84 -22 108 -30q0 188 -42 284q-42 94 -210 94q-82 0 -148 -14t-110 -30q-12 -4 -20 -10q-10 -4 -18 -10q8 -10 16 -18q6 -10 8 -24q5 -19 5 -36q0 -31 -17 -54q-26 -38 -70 -48q-17 -4 -32 -4q-31 0 -56 16q-38 26 -50 78 q-3 14 -3 28q0 36 21 74q30 52 118 90q40 18 134 44t230 26q170 0 246 -60q74 -62 98 -170q14 -56 16 -126q4 -68 4 -144v-638q0 -14 -12 -26q-10 -10 -26 -10h-34q-14 0 -22 8t-12 22q-4 34 -12 104q-56 -52 -158 -108t-240 -56q-160 0 -268 102q-108 104 -108 280z M200 356q0 -124 76 -198q78 -74 196 -74q132 0 236 62t146 116v24v292q-28 12 -108 36t-182 24q-164 0 -264 -78q-100 -76 -100 -204z" />
<glyph unicode="b" horiz-adv-x="1286" d="M164 38v726v1206v2v48v2v2q2 100 40 152q40 50 92 56q10 2 20 2q40 0 70 -22q36 -26 42 -76q1 -9 1 -18q0 -36 -19 -66q-26 -38 -82 -44q-10 -2 -20 0q-8 2 -18 6v-950q16 12 110 62q92 50 242 50q160 0 284 -76q126 -76 198 -204q38 -70 60 -150q20 -80 20 -170 q0 -164 -66 -298q-68 -136 -182 -216q-60 -44 -130 -66q-72 -24 -148 -24q-166 0 -270 70q-104 68 -130 98q-2 -34 -8 -102q-2 -20 -12 -28q-10 -10 -28 -10h-28q-16 0 -28 12q-10 10 -10 26zM290 290q2 -4 14 -20q12 -18 36 -42q44 -46 124 -94q82 -48 202 -48 q180 0 298 144t118 344q0 204 -128 342q-128 136 -326 136q-54 0 -100 -8q-48 -10 -86 -26q-72 -26 -112 -56l-40 -30v-642z" />
<glyph unicode="c" horiz-adv-x="1250" d="M62 574q0 90 24 172q24 80 68 150q80 128 216 204t294 76q152 0 256 -56q104 -54 150 -104q82 -80 94 -148q2 -16 2 -32v-6q0 -42 -26 -74q-34 -42 -78 -50q-7 -1 -14 -1q-37 0 -70 27q-36 28 -44 74q-2 8 -2 17q0 36 28 71q8 8 16 14q10 6 20 10q0 2 -2 2 q-22 24 -108 78t-222 54q-196 0 -334 -136q-140 -134 -140 -340q0 -208 140 -346t330 -138q106 0 178 34q74 34 118 72q24 20 40 36q16 18 24 28q14 16 28 18q12 0 26 -14q10 -8 32 -28q10 -10 14 -22q2 -10 -6 -24q-12 -18 -34 -42t-56 -50q-60 -48 -152 -88t-208 -40 q-86 0 -164 22q-80 22 -150 64q-128 78 -208 212t-80 304z" />
<glyph unicode="d" horiz-adv-x="1246" d="M62 574q0 166 70 300q70 136 190 214q64 42 142 66q76 22 162 22q150 0 244 -50q92 -50 106 -62v950q-8 -4 -18 -6h-20q-56 8 -80 46q-21 31 -21 66q0 8 1 16q6 52 42 78q30 20 70 20q10 0 20 -2q52 -6 92 -56q38 -50 40 -148v-2v-2v-1986q0 -16 -10 -26q-12 -12 -26 -12 h-30q-16 0 -28 10q-10 8 -12 28q-2 34 -8 100q-26 -28 -128 -96q-102 -70 -268 -70q-146 0 -264 78t-188 206q-38 68 -58 150q-20 80 -20 168zM188 574q0 -200 116 -344t296 -144q66 0 120 16t96 40q80 42 120 92t44 56v642l-12 10t-34 24q-44 28 -118 58q-76 30 -178 30 q-198 0 -324 -138t-126 -342z" />
<glyph unicode="e" horiz-adv-x="1248" d="M82 576q0 86 20 166q18 80 56 148q68 128 194 206q124 78 294 78q226 0 374 -148q146 -148 146 -376q0 -34 -6 -72q-4 -40 -36 -40h-916q8 -184 132 -318q122 -134 316 -134q46 0 90 6q42 8 80 18v2h-2q6 2 12 2l12 4l20 8l20 8l20 10q10 6 18 12q-10 8 -16 18 q-8 10 -12 22q-6 21 -6 39q0 30 16 53q24 38 68 50q20 6 38 6q27 0 50 -14q38 -24 54 -76q4 -16 4 -32q0 -23 -8 -48q-14 -42 -62 -78q-50 -42 -164 -84t-242 -42q-262 0 -412 178q-152 176 -152 428zM210 642h830q0 168 -100 292q-100 126 -294 126q-188 0 -306 -120 q-118 -122 -130 -298z" />
<glyph unicode="f" horiz-adv-x="810" d="M40 1074v36q0 16 12 28q12 10 26 10h172v394q0 252 124 374q122 122 310 122q90 0 168 -30q76 -28 122 -64q90 -66 112 -130q8 -28 8 -54q0 -32 -16 -60q-26 -46 -70 -60q-15 -5 -30 -5q-27 0 -56 17q-40 24 -56 66q-5 15 -5 30q0 30 19 62q6 10 14 18q10 8 20 14 q-38 28 -100 54t-130 26q-136 0 -222 -92q-86 -90 -86 -288v-394h426q16 0 26 -10t10 -24v-44q0 -14 -8 -24q-10 -10 -28 -10h-426v-998q0 -14 -10 -26q-12 -12 -26 -12h-52q-16 0 -26 12q-12 12 -12 26v998h-172q-20 0 -28 12q-10 12 -10 26z" />
<glyph unicode="g" horiz-adv-x="1270" d="M62 98q0 50 12 92q14 42 34 74q36 64 82 98t60 42q-22 30 -56 106q-32 78 -32 180q0 208 134 346q136 140 368 140h68h138h110h154q18 0 28 -12q10 -10 10 -26v-32q0 -10 -8 -20q-6 -12 -18 -14q-70 -4 -206 -14q40 -22 108 -106q68 -82 68 -262q0 -190 -128 -332 q-128 -144 -348 -144q-128 0 -206 38q-78 36 -106 66q-10 -4 -46 -26t-64 -64q-16 -24 -26 -52q-10 -30 -10 -64q0 -102 72 -134q70 -32 154 -32h416q186 0 306 -88q118 -88 118 -280q0 -64 -20 -126q-22 -60 -60 -114q-74 -100 -204 -164t-300 -64q-242 0 -374 100 t-170 222q-32 89 -32 154q0 32 8 58q24 76 84 98q25 9 48 9t44 -9q42 -16 58 -66q8 -21 8 -42t-8 -42q-16 -44 -68 -62l-16 -4h-14q12 -112 120 -206q110 -92 308 -92q194 0 326 100q130 100 130 248q0 98 -66 174q-66 78 -226 78h-362h-80t-96 8q-28 6 -82 34 q-54 26 -94 80q-22 30 -34 66q-14 36 -14 82zM280 694q0 -150 92 -260q92 -108 272 -108q160 0 256 108t96 260q0 180 -104 274q-106 92 -248 92q-166 0 -266 -106q-98 -106 -98 -260z" />
<glyph unicode="h" horiz-adv-x="1246" d="M164 36v726v1206q0 16 12 26q10 12 28 12h46q14 0 26 -12q12 -10 12 -26v-978q18 18 70 64q54 44 136 78q46 18 98 30t112 12q222 0 342 -134q118 -134 118 -390v-664v-4v-6q-4 -100 -44 -150t-92 -56h-16q-44 0 -74 22q-36 28 -42 80q-1 6 -1 12q0 37 23 70q26 36 82 42 h20q10 -2 18 -6v660q0 198 -88 300q-90 102 -252 102q-64 0 -118 -16q-56 -16 -102 -38q-84 -42 -134 -92q-52 -48 -56 -56v-814q0 -18 -10 -28q-8 -10 -28 -10h-54q-16 0 -24 12q-8 10 -8 26z" />
<glyph unicode="i" horiz-adv-x="524" d="M164 1804q0 42 28 72q28 28 70 28q40 0 68 -28q28 -30 28 -72q0 -38 -28 -66t-68 -28q-42 0 -70 28t-28 66zM198 38v402v670q0 16 12 26q10 12 26 12h52q14 0 26 -12q10 -10 10 -26v-1072q0 -18 -8 -28q-10 -10 -28 -10h-58q-16 0 -24 12q-8 10 -8 26z" />
<glyph unicode="j" horiz-adv-x="692" d="M-306 -648q0 22 8 44q20 50 60 70q20 10 42 10t46 -10q42 -16 64 -56q10 -20 10 -43t-10 -49q-4 -12 -12 -22q-8 -8 -18 -16q38 -22 86 -38q50 -18 104 -18q136 0 216 90q80 92 80 292v1502q0 16 12 26q10 12 26 12h48q16 0 26 -12q12 -10 12 -26v-832v-670 q0 -254 -116 -376q-114 -120 -304 -120q-60 0 -114 14q-56 14 -98 36h-2q-2 2 -4 2q-2 2 -4 2q-106 52 -140 116q-18 38 -18 72zM334 1802q0 42 28 72q28 28 68 28q42 0 70 -28q28 -30 28 -72q0 -38 -28 -66t-70 -28q-40 0 -68 28t-28 66z" />
<glyph unicode="k" horiz-adv-x="1162" d="M164 38v724v1208q0 16 10 26q12 12 28 12h48q14 0 26 -12q12 -10 12 -26v-1284q184 134 554 402q6 6 10 12q6 6 10 12q-12 6 -20 12q-10 8 -16 20q-20 31 -20 62q0 14 4 28q14 44 52 68q30 18 59 18q13 0 27 -4q44 -12 72 -58q19 -28 19 -65q0 -18 -5 -39 q-14 -60 -86 -122v-2q-2 0 -4 -2q-14 -12 -30 -24t-34 -22q-154 -114 -460 -340l690 -594q12 -10 12 -20q0 -6 -2 -12q-6 -16 -24 -16h-88q-14 0 -26 4t-32 18q-222 192 -662 572v-556q0 -18 -10 -28q-8 -10 -28 -10h-54q-16 0 -24 10q-8 12 -8 28z" />
<glyph unicode="l" horiz-adv-x="630" d="M144 2122q0 52 32 82q34 30 88 30q60 0 110 -60q48 -60 50 -196q0 -2 2 -4v-4v-1070v-862q0 -18 -10 -28q-8 -10 -28 -10h-58q-14 0 -22 12q-8 10 -8 26v1982q-10 -6 -20 -8q-10 -4 -22 -4q-56 0 -86 34q-28 36 -28 80z" />
<glyph unicode="m" horiz-adv-x="2050" d="M40 1260q0 8 2 16q6 52 42 78q30 20 70 20h20q52 -6 92 -56q38 -50 40 -150v-2v-2v-156q32 38 130 104q96 66 258 66q130 0 226 -54q96 -56 150 -156q8 12 28 34q22 20 52 46q56 46 146 88t204 42q234 0 340 -142t106 -384v-614q0 -14 -10 -26q-12 -10 -26 -10h-58 q-12 0 -22 10t-10 26v614q0 198 -84 300t-246 102q-104 0 -182 -38q-76 -40 -124 -82q-26 -24 -44 -44t-28 -32q14 -44 20 -96t6 -110v-614q0 -14 -10 -26q-12 -10 -28 -10h-54q-14 0 -24 10t-10 26v614q0 198 -86 300t-246 102q-114 0 -194 -44q-78 -44 -124 -88 q-24 -24 -38 -42t-18 -24v-818q0 -16 -8 -26q-10 -10 -28 -10h-58q-16 0 -24 10q-8 12 -8 26v1074v2v40q-8 -2 -18 -4t-20 0q-56 6 -80 44q-20 30 -22 66z" />
<glyph unicode="n" horiz-adv-x="1284" d="M40 1258q0 8 2 18q6 50 42 76q30 22 70 22q10 0 20 -2q52 -6 92 -56q38 -50 40 -150v-2v-2v-156q40 38 148 104t266 66q240 0 352 -142q110 -142 110 -384v-614q0 -14 -12 -26q-10 -10 -26 -10h-52q-14 0 -26 10q-10 12 -10 26v614q0 198 -90 300q-88 102 -252 102 q-114 0 -204 -46q-88 -46 -142 -90q-28 -22 -44 -40q-18 -18 -20 -22v-818q0 -16 -10 -26q-8 -10 -28 -10h-54q-16 0 -24 10q-8 12 -8 26v870v2v244q-8 -2 -18 -4t-20 0q-56 6 -80 44q-20 32 -22 66z" />
<glyph unicode="o" horiz-adv-x="1276" d="M62 576q0 86 22 166t62 148q76 128 204 208q130 78 288 78q156 0 286 -78q130 -80 204 -208q42 -68 64 -148t22 -166q0 -162 -74 -298t-198 -216q-66 -44 -142 -66q-78 -24 -162 -24q-158 0 -286 78q-130 78 -206 208q-40 68 -62 150q-22 80 -22 168zM184 576 q0 -204 132 -346q130 -140 322 -140q190 0 320 140q130 142 130 346q0 198 -130 340q-130 140 -320 140q-192 0 -322 -140q-132 -142 -132 -340z" />
<glyph unicode="p" horiz-adv-x="1268" d="M122 -96v1208q0 14 12 26q10 12 24 12h30q16 0 26 -8t12 -24l12 -78q26 22 122 80t254 58q154 0 278 -78q122 -78 192 -206q38 -70 60 -150q20 -80 20 -168q0 -166 -70 -300q-72 -134 -194 -214q-66 -42 -146 -66q-80 -22 -170 -22q-142 0 -228 48q-86 50 -110 72v-910 q10 4 20 6t22 0q54 -6 80 -44q21 -33 21 -71q0 -6 -1 -13q-6 -50 -44 -76q-28 -22 -70 -22q-8 0 -20 2q-52 6 -90 58q-40 50 -40 152l-2 2v726zM246 226l16 -16t34 -28q42 -28 112 -58t166 -30q208 0 336 140t128 344q0 200 -120 342q-118 140 -316 140q-110 0 -186 -38 q-78 -36 -120 -72q-22 -20 -34 -34l-16 -16v-674z" />
<glyph unicode="q" horiz-adv-x="1266" d="M40 574q0 88 22 168q20 80 58 150q70 128 194 206q122 78 278 78t254 -58q96 -58 122 -80q4 26 10 78q2 18 14 24q10 8 24 8h32q12 0 24 -12q10 -10 10 -26v-1928q10 4 20 6t20 0q56 -6 82 -44q20 -32 20 -66v-16q-8 -52 -44 -78q-28 -20 -63 -20h-7h-20q-54 6 -94 62 q-38 53 -38 156v10v900q-22 -22 -110 -72q-86 -48 -228 -48q-90 0 -168 22q-80 24 -146 66q-124 80 -194 214q-72 134 -72 300zM168 576q0 -204 128 -344t336 -140q50 0 94 10t82 24q68 26 106 58q40 32 44 40v674q-2 2 -14 16t-36 34q-42 36 -118 72q-78 38 -186 38 q-198 0 -318 -140q-118 -142 -118 -342z" />
<glyph unicode="r" horiz-adv-x="910" d="M122 38v402v670q0 16 12 26q12 12 26 12h34q14 0 24 -8q8 -10 12 -24q2 -40 10 -118q8 10 24 28q14 18 38 40q44 38 118 74t178 36q30 0 54 -4q26 -2 46 -6q2 -2 6 -2h4q2 -2 4 -2h4q112 -26 156 -80q38 -46 38 -92v-18q-8 -54 -44 -82q-26 -22 -64 -22q-11 0 -22 2 q-44 6 -74 40q-24 27 -24 67q0 11 2 23q2 10 6 18l8 16q-20 6 -46 12q-28 6 -62 6q-58 0 -106 -14t-86 -38q-72 -40 -108 -88t-40 -58v-816q0 -18 -10 -28q-8 -10 -28 -10h-58q-14 0 -22 12q-10 10 -10 26z" />
<glyph unicode="s" horiz-adv-x="970" d="M82 878q0 94 88 196q90 102 288 102q90 0 162 -22q72 -20 118 -44q98 -48 130 -108q20 -36 20 -69q0 -21 -8 -41q-18 -52 -58 -72q-21 -12 -45 -12q-20 0 -43 8q-42 14 -64 54q-13 22 -13 47q0 21 9 45q4 12 10 22q8 8 18 16q-36 18 -100 42q-64 22 -136 22 q-136 0 -192 -62q-56 -64 -56 -122q0 -86 74 -134q72 -50 200 -94q160 -62 282 -134t122 -228q0 -130 -118 -224t-290 -94q-146 0 -236 46q-92 46 -140 82q-8 8 -12 18q-6 12 2 22q8 16 28 46q6 12 22 14q14 2 30 -10q22 -18 104 -66q82 -46 202 -46q124 0 200 60t76 144 q0 98 -88 150q-90 54 -234 108q-152 54 -252 128q-100 76 -100 210z" />
<glyph unicode="t" horiz-adv-x="932" d="M62 1072v46q0 14 10 22q8 6 24 6h134v312q0 18 12 28q10 10 26 10q16 2 48 4q16 0 26 -12q12 -12 12 -26v-316h398q18 0 28 -10q10 -12 10 -26v-38q0 -18 -10 -28t-28 -10h-398v-730q0 -102 24 -156t126 -54q46 0 96 12q50 14 90 30q-8 8 -14 16q-6 10 -10 22 q-6 20 -6 38q0 29 16 52q24 38 68 52q18 5 35 5q29 0 53 -15q38 -22 54 -74q4 -16 4 -32q0 -42 -30 -86q-40 -62 -158 -104q-44 -16 -98 -28t-116 -12q-178 0 -218 94q-40 92 -40 230v740h-134q-22 0 -28 10t-6 28z" />
<glyph unicode="u" horiz-adv-x="1176" d="M82 492v444v2v2q2 100 42 150q38 50 90 56h20h7q36 0 63 -20q36 -26 42 -78q1 -8 1 -16q0 -35 -21 -66q-24 -38 -80 -44q-10 -2 -20 0q-8 2 -18 4v-434q0 -200 90 -300q88 -102 252 -102q62 0 114 16q52 14 96 38q78 42 122 92q42 48 46 56v816q0 18 10 28t28 10h50 q16 0 28 -12q10 -10 10 -26v-1072q0 -14 -10 -26q-12 -12 -28 -12h-34q-16 0 -24 12q-8 10 -10 24q-4 36 -12 112q-14 -20 -64 -62q-48 -42 -126 -74q-44 -18 -94 -28q-52 -12 -112 -12q-240 0 -350 140q-108 140 -108 382z" />
<glyph unicode="v" horiz-adv-x="1188" d="M42 1128v6q4 14 22 14h64q10 0 20 -6q10 -4 16 -20q140 -316 416 -946h4q140 316 418 946q2 2 2 4t2 2q2 4 4 12q2 2 2 4v6q-12 -2 -24 0t-22 8q-50 28 -58 72q-3 14 -3 28q0 30 15 56q26 46 70 56l24 4q32 0 66 -20q54 -28 66 -106q2 -12 2 -28q0 -68 -52 -166 q-158 -352 -476 -1056q-6 -14 -14 -20t-20 -6h-10q-14 0 -22 6q-6 4 -14 20q-164 368 -492 1106q-6 14 -6 24z" />
<glyph unicode="w" horiz-adv-x="1650" d="M42 1126v8q2 12 22 12h62q12 0 22 -4q12 -6 16 -22q90 -300 270 -902h2q114 310 342 932q4 14 12 20t22 6h12q10 0 20 -8q10 -6 14 -18q114 -312 342 -932h2l228 762q16 56 48 170q-12 -2 -22 0q-10 0 -22 4q-50 22 -64 66q-7 20 -7 39q0 22 9 45q20 48 62 64q18 6 38 6 q26 0 54 -12q56 -24 78 -96q6 -22 6 -52v-7q0 -58 -30 -135q-112 -358 -336 -1076q-4 -14 -12 -20t-22 -6h-10q-12 0 -22 6q-10 8 -14 20q-116 322 -346 966h-4q-114 -322 -344 -966q-4 -12 -14 -20q-10 -6 -20 -6h-12q-12 0 -20 6q-10 6 -14 20q-114 368 -344 1104 q-4 16 -4 26z" />
<glyph unicode="x" horiz-adv-x="1176" d="M62 22q-2 8 8 20q140 182 422 546q-134 174 -400 520q-12 16 -6 28t24 12h74q12 0 24 -6q10 -6 20 -20l336 -444h2q86 114 258 340q32 40 94 124l2 2q0 2 2 4q-14 2 -24 6q-12 4 -20 12q-42 38 -42 84q2 44 32 78q34 40 78 40h2q44 0 84 -36q42 -36 42 -108 q0 -70 -70 -162q-2 -2 -2 -4l-4 -4t-4 -6q-118 -152 -350 -456q138 -184 416 -550q12 -16 6 -28q-6 -14 -24 -14h-74q-12 0 -24 8q-10 6 -20 18q-120 160 -358 480h-2l-360 -480q-8 -12 -20 -18q-12 -8 -22 -8h-76q-16 0 -22 14q-2 4 -2 8z" />
<glyph unicode="y" horiz-adv-x="1294" d="M40 -878q0 20 10 44q16 42 56 64q21 12 45 12q22 0 47 -10q12 -6 20 -12l16 -16q126 268 376 808q-180 364 -542 1090q-8 18 -4 32q2 14 22 14h62q12 0 22 -6t16 -20q164 -322 490 -970h6q150 324 448 970q6 14 16 20t22 6h62q20 0 24 -14v-8q0 -10 -6 -24 q-294 -634 -884 -1904q-52 -124 -118 -162q-44 -26 -82 -26q-22 0 -42 8q-50 20 -70 60q-12 20 -12 44z" />
<glyph unicode="z" horiz-adv-x="1054" d="M102 32l2 16q0 14 14 36q2 2 40 56t84 122q60 84 112 160l54 74q-50 34 -80 68q-32 34 -42 54q-10 16 -10 28q-2 12 10 20q8 8 28 24q10 8 22 6t24 -18q4 -6 30 -38q26 -30 74 -62q104 148 312 446v8h-584q-16 0 -26 12q-8 10 -8 26v40q0 16 8 26q10 10 26 10h742 q22 0 34 -16q4 -10 4 -18q0 -10 -6 -20l-390 -564q12 -4 26 -6t30 -4q32 -2 60 2t50 12q-8 10 -12 22t-4 24q0 56 36 86q34 28 80 28q52 0 82 -32q30 -34 30 -88q0 -62 -64 -112q-64 -48 -206 -48q-48 0 -90 8t-78 22q-76 -110 -228 -328h600q18 0 28 -10t10 -26v-42 q0 -14 -10 -26q-10 -10 -28 -10h-750q-16 0 -26 8q-10 10 -10 24z" />
<glyph unicode="{" horiz-adv-x="1044" d="M122 558v46q0 12 8 16q6 4 18 8q16 6 38 14q24 10 48 24q46 26 84 78q40 50 40 140v460q0 320 136 476q138 156 318 198q84 28 144 28q38 0 66 -10q76 -28 96 -86q8 -26 8 -48q0 -24 -10 -44q-18 -42 -68 -58q-42 -14 -84 4q-42 16 -60 70q-4 12 -4 24t4 24h-2h-2 q-192 -38 -304 -178q-114 -140 -114 -404v-456q0 -98 -44 -162t-86 -98q-24 -20 -42 -30t-24 -14v-2q8 -4 56 -34t88 -92q22 -34 36 -78q16 -44 16 -98v-468q0 -294 140 -434q140 -142 370 -158q12 -4 20 -12t8 -24v-34q0 -14 -12 -24t-28 -10q-146 0 -286 60 q-142 58 -232 204q-48 78 -76 186q-28 106 -28 244v470q0 90 -40 142q-38 50 -84 76q-24 14 -48 24q-22 8 -38 14q-12 4 -18 8q-8 4 -8 18z" />
<glyph unicode="|" horiz-adv-x="908" d="M410 682v1498q0 18 10 28q12 10 26 10h18q16 0 24 -10q10 -10 10 -28v-1808v-1158q0 -16 -10 -26q-12 -10 -26 -10h-16q-14 0 -26 10q-10 10 -10 26v1468z" />
<glyph unicode="}" horiz-adv-x="1032" d="M-82 -750q0 24 10 46q18 40 66 56q44 14 86 -2q42 -18 60 -70q4 -14 4 -24l-4 -24q2 -2 4 0h6q182 40 292 180q108 138 108 396v468q0 52 14 96q14 42 36 76q38 62 86 92q48 32 58 38v2q-8 4 -54 36q-48 30 -90 94q-20 32 -36 76q-14 44 -14 98v456q0 296 -140 436 t-370 158q-14 2 -22 10q-8 10 -8 24v34q0 16 14 26q12 10 26 10q146 0 288 -60t232 -206q48 -78 76 -184t28 -244v-460q0 -48 12 -84t32 -64q36 -50 86 -74t78 -32q14 -6 20 -10t6 -16v-46q0 -14 -6 -18t-20 -8q-16 -6 -38 -14q-22 -10 -48 -24q-44 -26 -84 -76 q-38 -52 -38 -142v-470q0 -320 -136 -474q-136 -156 -314 -200q-78 -24 -136 -24q-40 0 -68 10q-74 26 -94 86q-8 24 -8 46z" />
<glyph unicode="~" horiz-adv-x="1412" d="M40 740q0 10 8 20l44 68q42 68 124 128q42 32 96 54q54 24 118 24q100 0 176 -52q74 -50 124 -104q38 -38 98 -84q58 -44 130 -44q84 0 142 44q60 46 96 94q6 8 10 18l8 16q-12 2 -22 8q-12 4 -20 14q-42 38 -38 84t34 78q36 34 78 36h4q44 -2 84 -40q36 -36 36 -100v-2 q0 -64 -62 -148q-40 -58 -130 -138t-220 -80q-102 0 -172 52q-70 50 -122 100q-40 42 -98 86t-136 44q-46 0 -86 -16q-38 -16 -68 -40q-60 -44 -92 -98t-42 -68t-22 -16q-14 -2 -28 8t-38 28q-10 10 -12 22q-2 2 -2 4z" />
<glyph unicode="&#xa1;" horiz-adv-x="638" d="M164 -932q0 40 24 74q28 36 84 40h6h6v332l24 816q0 14 14 24q12 12 24 12h24q14 0 26 -12q10 -10 10 -24q10 -270 30 -814v-298v-26v-2v-22v-2t-2 -6v-4q-8 -100 -48 -148q-42 -48 -94 -52h-12q-46 0 -78 24q-34 28 -38 80v8zM242 1050q0 48 34 82q32 34 82 34 q46 0 82 -34t36 -82t-36 -82q-36 -32 -82 -32q-50 0 -82 32q-34 34 -34 82z" />
<glyph unicode="&#xa2;" horiz-adv-x="1202" d="M62 572q0 168 80 302t208 212q70 42 148 66q80 22 166 22q24 0 46 -2t42 -6l30 114q4 16 18 20q8 4 20 4h8q4 -2 14 -4q14 -2 22 -16q8 -12 4 -30q-10 -36 -28 -108q98 -28 162 -76q66 -48 86 -76q12 -14 10 -28t-16 -24l-30 -30q-22 -16 -34 -10t-24 20q-10 10 -60 46 t-126 56q-84 -308 -250 -926q26 -4 52 -6t52 -2q56 0 102 10q48 12 88 28q70 30 114 70q42 40 60 54q14 18 28 18q14 2 26 -12q8 -6 24 -20q10 -10 14 -22q2 -6 2 -10q0 -8 -6 -16q-20 -34 -80 -86q-58 -52 -148 -90q-48 -20 -104 -32q-56 -14 -118 -14q-36 0 -72 4 q-36 2 -68 12l-66 -258q-4 -16 -18 -22q-10 -2 -20 -2h-8q-6 2 -14 2q-16 4 -24 16q-6 12 -2 28q22 88 66 262q-164 64 -270 214t-106 348zM190 574q0 -154 80 -272t202 -172q82 304 246 914q-12 4 -26 4q-12 2 -28 2q-196 0 -334 -136q-140 -136 -140 -340z" />
<glyph unicode="&#xa3;" horiz-adv-x="1502" d="M164 914v10q0 14 10 24q12 12 28 12h102q-22 92 -56 218q-36 128 -36 284q0 90 24 172q24 80 66 146q78 122 208 192q132 68 286 68q136 0 246 -44q108 -42 176 -92q2 -2 6 -4l4 -4q2 0 4 -2l4 -4q4 -4 8 -6q4 -4 8 -6l4 -4l2 -2l4 -4q4 -2 6 -4q10 -10 16 -18l14 -14v-2 q34 -46 38 -88q2 -8 2 -14q0 -34 -16 -62q-26 -46 -68 -62q-44 -14 -88 12q-40 22 -56 64t12 92q4 8 10 14q6 8 14 12q-52 40 -142 80q-92 42 -214 42q-184 0 -318 -126t-134 -336q0 -150 38 -280q36 -130 54 -218h580q20 0 28 -14q10 -12 10 -28v-10q0 -16 -10 -26 q-10 -12 -28 -12h-556q8 -52 12 -112q4 -62 4 -120q-2 -128 -24 -254q-24 -128 -82 -262h862q22 0 28 -14q6 -12 6 -26v-44q0 -12 -10 -24q-10 -10 -24 -10h-982q-14 0 -26 12q-10 12 -8 28v26q68 154 106 312q36 158 32 256q0 72 -8 128q-6 54 -16 104h-122q-18 0 -28 14 q-10 12 -10 30z" />
<glyph unicode="&#xa4;" d="M84 280q2 14 8 20q50 52 152 152q-76 100 -74 226q2 128 74 226q-50 48 -152 148q-6 8 -8 24v2q0 14 14 26q10 10 28 32q14 12 28 12l2 -2q14 0 26 -4q48 -52 146 -152q102 76 226 74t224 -78l152 152q6 6 22 8q16 0 30 -16q10 -8 32 -26q10 -16 10 -28v-2 q-2 -14 -10 -24l-148 -148q74 -98 74 -224t-74 -222q50 -50 148 -146q8 -14 6 -28q0 -14 -16 -28q-8 -10 -28 -32q-16 -12 -30 -10t-22 8l-146 146q-100 -72 -226 -74q-126 0 -224 74q-50 -50 -146 -152q-10 -6 -24 -6h-2q-14 2 -30 12q-8 12 -28 34q-16 12 -14 26zM282 676 q0 -116 80 -194t194 -80h4q114 0 192 80q80 78 80 194t-80 196q-78 80 -192 80h-4q-114 0 -194 -80t-80 -196z" />
<glyph unicode="&#xa5;" horiz-adv-x="1792" d="M82 1986q0 6 2 10q8 12 28 12h88q10 0 20 -4t16 -12q218 -300 654 -896q222 298 666 896q6 8 16 12t22 4h86q22 0 28 -12q2 -4 2 -10q0 -10 -8 -20q-248 -330 -746 -988v-148h430q18 0 26 -12q10 -12 10 -26v-18q0 -14 -10 -24t-26 -10h-430v-252h430q18 0 26 -12 q10 -10 10 -26v-16q0 -16 -10 -26t-26 -10h-430v-360q0 -16 -10 -26q-12 -12 -26 -12h-64q-14 0 -24 12q-10 10 -10 26v360h-430q-16 0 -26 10t-10 26v16q0 16 10 26q8 12 26 12h430v252h-430q-16 0 -26 10t-10 24v18q0 14 10 26q8 12 26 12h430v146l-732 990q-8 10 -8 20z " />
<glyph unicode="&#xa6;" d="M510 0v510q0 14 12 26q10 10 26 10h16q16 0 26 -10q10 -12 10 -26v-662v-332q0 -14 -12 -24t-26 -10h-14q-16 0 -26 10q-12 10 -12 24v484zM510 1494v482v508q0 16 12 26q10 10 26 10h16q16 0 26 -10t10 -26v-662v-328q0 -16 -12 -26q-12 -12 -26 -12h-14q-16 0 -26 12 q-12 10 -12 26z" />
<glyph unicode="&#xa7;" horiz-adv-x="1568" d="M164 830q0 134 74 222t112 122q-20 20 -64 66t-78 120q-18 38 -30 86q-12 46 -12 100q0 104 58 218q58 112 188 186q70 40 162 64q94 24 210 24q154 0 272 -44t174 -76q6 -4 10 -6t6 -4q114 -66 144 -136q14 -36 14 -66q0 -32 -14 -58q-26 -48 -68 -62t-88 10 q-40 22 -56 64t10 92q4 6 10 12q4 6 10 10q-2 2 -4 2l-4 4q-4 2 -24 14q-18 12 -48 28q-58 30 -150 62q-90 32 -194 32q-94 0 -168 -16q-72 -18 -126 -48q-102 -54 -148 -140q-44 -84 -44 -166q0 -164 130 -266q128 -100 342 -166q282 -94 456 -212t174 -344q0 -46 -14 -88 q-12 -42 -34 -80q-38 -68 -86 -116l-70 -70q24 -18 72 -68q48 -48 84 -124q20 -42 32 -90q14 -50 14 -108q0 -72 -26 -136q-26 -66 -70 -118q-82 -102 -220 -160q-136 -58 -292 -58q-160 0 -284 48q-126 48 -202 98q-42 28 -70 50q-26 20 -36 30t-18 24t10 36q12 16 36 46 q12 12 26 16q14 2 30 -14q12 -12 78 -64t170 -96q56 -24 122 -38q66 -16 140 -16q60 0 120 12t114 36q98 42 164 120t66 182q0 176 -144 282q-142 104 -394 188q-242 80 -398 204t-156 344zM298 836q0 -172 126 -264q128 -90 334 -160q90 -28 174 -64q82 -34 158 -78 q28 26 98 98q68 72 68 180q0 172 -144 268q-142 94 -394 178q-78 20 -148 50q-70 28 -122 66q-34 -32 -92 -98t-58 -176z" />
<glyph unicode="&#xa8;" d="M216 2382q0 42 28 72q28 28 68 28q44 0 72 -28q26 -30 26 -72q0 -40 -26 -68q-28 -28 -72 -28q-40 0 -68 28t-28 68zM766 2382q0 42 28 72q26 28 66 28q44 0 72 -28q30 -30 30 -72q0 -40 -30 -68q-28 -28 -72 -28q-40 0 -66 28q-28 28 -28 68z" />
<glyph unicode="&#xa9;" horiz-adv-x="2232" d="M82 974q0 276 134 508t354 370q118 74 256 114q138 42 288 42t288 -42q138 -40 256 -114q222 -138 358 -370q134 -232 134 -508q0 -150 -40 -288q-42 -138 -116 -256q-138 -220 -370 -354t-510 -134q-150 0 -288 40t-256 114q-220 136 -354 368t-134 510zM82 974 q0 276 134 508t354 370q118 74 256 114q138 42 288 42t288 -42q138 -40 256 -114q222 -138 358 -370q134 -232 134 -508q0 -150 -40 -288q-42 -138 -116 -256q-138 -220 -370 -354t-510 -134q-150 0 -288 40t-256 114q-220 136 -354 368t-134 510zM194 974q0 -248 120 -454 t316 -328q106 -66 228 -102q124 -38 256 -38q134 0 258 38q122 36 228 102q196 122 316 328t120 454t-120 454t-316 326q-106 66 -230 102q-122 36 -256 36q-246 0 -454 -120q-206 -118 -328 -314q-66 -106 -102 -228t-36 -256zM194 974q0 -248 120 -454t316 -328 q106 -66 228 -102q124 -38 256 -38q134 0 258 38q122 36 228 102q196 122 316 328t120 454t-120 454t-316 326q-106 66 -230 102q-122 36 -256 36q-246 0 -454 -120q-206 -118 -328 -314q-66 -106 -102 -228t-36 -256zM596 968q0 80 22 154q20 72 60 134q72 118 194 188 t268 70q72 0 146 -18t140 -58q88 -48 116 -106q16 -34 16 -66q0 -20 -8 -42q-18 -50 -58 -70t-88 -2q-44 16 -66 56t-2 92q4 12 12 20q8 10 18 18q-4 2 -8 6q-6 4 -10 8q-48 24 -100 36q-54 10 -104 10q-180 0 -300 -124q-122 -126 -122 -302q0 -178 122 -302 q120 -124 300 -124q68 0 134 22q64 22 124 68q14 10 28 10t26 -16q8 -12 26 -34q8 -14 8 -26t-10 -24q-74 -66 -160 -94q-84 -28 -180 -28q-146 0 -268 70t-194 188q-40 62 -60 134q-22 74 -22 152zM596 968q0 80 22 154q20 72 60 134q72 118 194 188t268 70q72 0 146 -18 t140 -58q88 -48 116 -106q16 -34 16 -66q0 -20 -8 -42q-18 -50 -58 -70t-88 -2q-44 16 -66 56t-2 92q4 12 12 20q8 10 18 18q-4 2 -8 6q-6 4 -10 8q-48 24 -100 36q-54 10 -104 10q-180 0 -300 -124q-122 -126 -122 -302q0 -178 122 -302q120 -124 300 -124q68 0 134 22 q64 22 124 68q14 10 28 10t26 -16q8 -12 26 -34q8 -14 8 -26t-10 -24q-74 -66 -160 -94q-84 -28 -180 -28q-146 0 -268 70t-194 188q-40 62 -60 134q-22 74 -22 152z" />
<glyph unicode="&#xaa;" horiz-adv-x="792" d="M62 1436q0 120 92 200q94 78 258 78q66 0 124 -12q60 -12 76 -20q0 138 -28 200t-144 62q-104 0 -168 -26t-78 -32q-14 -4 -22 2q-8 4 -10 12q-4 14 -12 38q-4 12 2 22q4 8 12 12q6 2 78 34q74 30 204 30q68 0 116 -16q46 -14 74 -40q54 -52 64 -138q10 -88 10 -196v-442 q0 -14 -10 -22q-8 -8 -18 -8h-32q-14 0 -20 6t-10 18q-2 22 -8 66q-40 -34 -110 -72q-72 -38 -168 -38q-116 0 -194 76t-78 206zM150 1438q0 -88 56 -140q54 -54 136 -54q92 0 164 42q74 42 104 80v230q-24 10 -78 24q-56 16 -126 16q-112 0 -184 -56q-72 -58 -72 -142z" />
<glyph unicode="&#xab;" horiz-adv-x="1056" d="M82 938v2q2 14 8 24q102 148 310 442q14 22 26 24q10 2 20 2h46q16 0 22 -16v-8q2 -12 -8 -28q-90 -146 -270 -440l270 -450q12 -22 8 -36q-6 -16 -22 -16h-46q-10 0 -20 2q-12 4 -26 24q-104 150 -310 452q-8 8 -8 22zM540 938l2 2q0 14 6 24q104 148 310 442 q16 22 26 24q12 2 20 2h46q18 0 22 -16q2 -4 2 -8q0 -12 -10 -28q-90 -146 -270 -440l270 -450q14 -22 8 -36q-4 -16 -22 -16h-46q-8 0 -20 2q-10 4 -26 24q-102 150 -310 452q-8 8 -8 22z" />
<glyph unicode="&#xac;" horiz-adv-x="1340" d="M82 976v44q0 14 10 26q12 10 26 10h1104q16 0 26 -10q10 -12 10 -26v-574q0 -16 -12 -24q-10 -10 -26 -10h-44q-16 0 -26 10q-12 8 -12 24v494h-1020q-14 0 -26 10q-10 12 -10 26z" />
<glyph unicode="&#xad;" d="M208 702v32q0 16 10 26t24 10h648q16 0 26 -10q12 -10 12 -26v-32q0 -16 -12 -26q-10 -12 -26 -12h-648q-14 0 -24 12q-10 10 -10 26z" />
<glyph unicode="&#xae;" horiz-adv-x="2212" d="M82 968q0 278 134 510q134 230 354 368q118 74 256 114q138 42 288 42t288 -42q138 -40 256 -114q222 -136 358 -368q134 -232 134 -510q0 -150 -40 -288q-42 -138 -116 -256q-138 -220 -370 -354t-510 -134t-508 134q-232 134 -370 354q-72 118 -114 256 q-40 138 -40 288zM194 968q0 -132 36 -256q36 -122 102 -228q122 -196 328 -316q208 -120 454 -120q248 0 454 120q208 120 330 316q66 106 102 228q36 124 36 256q0 248 -120 454t-316 328q-106 64 -230 100q-122 36 -256 36q-132 0 -256 -36q-122 -36 -228 -100 q-196 -122 -316 -328t-120 -454zM748 480v986q0 14 10 26q8 10 24 10h418q138 0 252 -78t114 -246q0 -154 -92 -230q-92 -74 -182 -92q68 -122 202 -366q8 -16 2 -30t-26 -14h-66q-10 0 -22 8t-18 22l-192 372h-20h-20h-270v-368q0 -16 -8 -26q-6 -10 -26 -10h-46 q-16 0 -24 10q-10 12 -10 26zM862 954h338q98 0 172 60q76 58 76 164q0 126 -84 174t-198 48h-304v-446z" />
<glyph unicode="&#xaf;" d="M204 1716v32q0 16 10 26t26 10h648q14 0 26 -10q10 -10 10 -26v-32q0 -16 -10 -26q-12 -12 -26 -12h-648q-16 0 -26 12q-10 10 -10 26z" />
<glyph unicode="&#xb0;" d="M202 1576q0 214 92 336t258 122q168 0 260 -122t92 -336q0 -208 -92 -328q-92 -122 -260 -122q-166 0 -258 122q-92 120 -92 328zM306 1576q0 -166 66 -260q66 -96 180 -96q118 0 184 96q66 94 66 260q0 172 -66 268q-66 98 -184 98q-116 0 -180 -98q-66 -96 -66 -268z " />
<glyph unicode="&#xb1;" horiz-adv-x="1504" d="M164 250v44q0 14 10 26q12 10 28 10h1104q14 0 24 -10q10 -12 10 -26v-44q0 -14 -10 -26q-10 -10 -24 -10h-1104q-16 0 -28 10q-10 12 -10 26zM164 1134v44q0 14 10 26q12 10 28 10h490v482q0 16 10 24q12 10 26 10h46q16 0 26 -10q12 -8 12 -24v-482h494q14 0 24 -10 q10 -12 10 -26v-44q0 -16 -10 -26q-10 -12 -24 -12h-494v-360q0 -16 -12 -26q-10 -12 -26 -12h-46q-14 0 -26 12q-10 10 -10 26v360h-490q-16 0 -28 12q-10 10 -10 26z" />
<glyph unicode="&#xb2;" d="M254 1464v28q134 124 400 372q48 44 74 90q26 48 28 98q0 64 -52 118t-154 54q-80 0 -130 -38q-48 -40 -66 -56q-6 -10 -14 -8q-10 2 -14 6q-12 12 -38 34q-4 6 -6 12q-2 8 4 18l10 10q8 10 24 26q32 28 92 60t146 32q148 0 226 -78q78 -76 78 -180q0 -68 -36 -132 q-34 -64 -94 -120q-104 -92 -308 -278h410q8 0 14 -6q6 -4 6 -16v-44q0 -8 -4 -16q-6 -6 -16 -6h-554h-4q-10 0 -16 6t-6 14z" />
<glyph unicode="&#xb3;" d="M254 1546v2q0 8 8 14q10 10 32 30q8 10 18 10t18 -10q16 -14 68 -54q52 -38 162 -38q96 0 158 48q62 46 62 116q0 64 -56 114t-174 50h-130q-12 0 -18 10q-4 8 -4 18v36q0 10 6 16t16 6h130t148 40q60 38 60 118q0 70 -56 114q-56 42 -138 42q-96 0 -144 -38t-60 -48 q-6 -6 -14 -8t-14 6l-36 30q-10 10 -10 18q0 6 8 12l8 10q10 10 28 24q32 26 94 54q62 30 148 30q128 0 210 -62q84 -64 84 -174q0 -70 -48 -126t-102 -80l44 -20t82 -64q20 -26 36 -58q14 -34 14 -76q0 -106 -92 -176q-90 -70 -236 -70q-132 0 -208 48q-74 46 -94 72 q-6 6 -8 14z" />
<glyph unicode="&#xb4;" horiz-adv-x="1248" d="M360 1616v36q0 14 10 22t28 8q8 0 54 2q48 0 108 24q32 14 66 36q34 20 66 54q20 24 34 48t20 48q-12 0 -22 4q-12 4 -22 12q-44 34 -46 80t26 80q32 42 76 46h8q40 0 80 -30q48 -38 48 -120q0 -80 -88 -192q-36 -48 -78 -80q-42 -34 -84 -56q-78 -40 -146 -48 q-46 -6 -74 -6q-14 0 -24 2q-18 2 -28 8q-10 8 -12 22z" />
<glyph unicode="&#xb5;" d="M110 -98v1208q0 16 12 26q10 10 26 10h50q16 0 26 -10q12 -10 12 -26v-616q0 -200 88 -302q88 -100 254 -100q62 0 114 16q52 14 96 38q78 42 122 90q42 50 46 56v818q0 16 10 26t28 10h52q16 0 26 -10q12 -10 12 -26v-1074q0 -14 -12 -26q-10 -10 -26 -10h-34 q-18 0 -24 10q-8 10 -12 24l-12 114q-8 -12 -26 -30t-44 -38q-50 -38 -132 -72t-192 -34q-114 0 -204 44t-130 104v-948h2q0 -16 -14 -26q-12 -10 -28 -10h-48q-16 0 -26 10q-12 12 -12 26v728z" />
<glyph unicode="&#xb6;" horiz-adv-x="2116" d="M122 1406q0 86 22 168q22 80 62 148q74 128 200 208q126 78 282 78h1084h4h2q130 4 192 -40t66 -104v-10q0 -46 -26 -78q-28 -36 -78 -38q-46 -4 -82 24q-36 26 -40 82q-2 14 2 24q2 12 8 22q-10 4 -22 6l-24 4h-2h-42h-10q-4 -2 -10 -2h2v2h-102v-2724q0 -14 -12 -26 q-12 -10 -26 -10h-32q-12 0 -24 8q-12 10 -12 28v2724h-504v-2724q0 -14 -10 -26q-12 -10 -26 -10h-32q-12 0 -26 8q-12 10 -12 28v1636h-206q-166 0 -292 82t-196 208q-38 70 -58 146q-20 78 -20 158z" />
<glyph unicode="&#xb7;" horiz-adv-x="1258" d="M510 1154q0 48 34 82q36 34 84 34t82 -34q32 -34 32 -82q0 -46 -32 -82q-34 -34 -82 -34t-84 34q-34 36 -34 82z" />
<glyph unicode="&#xb8;" d="M346 -584q2 12 12 22q10 8 28 22q10 8 22 6t24 -14q14 -16 50 -38q34 -22 96 -22q78 0 124 50t46 122q0 104 -86 144t-178 50q-20 6 -26 16q-8 10 -8 22v204h68h36v-154q128 -16 218 -84q88 -68 88 -196q0 -114 -80 -196t-202 -82q-82 0 -144 34q-60 32 -78 64 q-10 14 -10 26v4z" />
<glyph unicode="&#xb9;" d="M362 2128v2q2 6 12 14q70 50 212 150h34q10 0 20 -6q8 -4 8 -16v-376v-428q0 -10 -6 -16q-8 -6 -16 -6h-58h-4q-10 0 -14 4q-6 6 -6 16v692q-44 -26 -136 -80q-8 -4 -14 -2q-8 2 -12 8q-6 10 -16 30q-4 8 -4 14z" />
<glyph unicode="&#xba;" horiz-adv-x="846" d="M62 1576q0 214 92 336t258 122q168 0 260 -122t92 -336q0 -208 -92 -328q-92 -122 -260 -122q-166 0 -258 122q-92 120 -92 328zM164 1576q0 -166 66 -260t182 -94q118 0 184 94t66 260q0 170 -66 268t-184 98q-116 0 -182 -98t-66 -268z" />
<glyph unicode="&#xbb;" horiz-adv-x="1056" d="M82 1410q0 4 2 8q4 16 22 16h46q8 0 18 -2q12 -2 28 -24q102 -148 310 -442q6 -10 6 -24v-2q0 -14 -6 -22q-104 -152 -310 -452q-16 -20 -28 -24q-10 -2 -18 -2h-46q-18 0 -22 16q-6 14 8 36q88 150 268 450q-90 148 -268 440q-10 16 -10 28zM540 1410q0 4 2 8 q6 16 22 16h46q8 0 20 -2t26 -24q104 -148 310 -442q6 -10 8 -24v-2q0 -14 -8 -22q-104 -152 -310 -452q-14 -20 -26 -24q-12 -2 -20 -2h-46q-16 0 -22 16q-4 14 8 36l270 450q-90 148 -270 440q-10 16 -10 28z" />
<glyph unicode="&#xbc;" d="M-126 1840v2q0 6 12 14q70 50 208 150h36q10 0 18 -6q10 -4 10 -18v-802q0 -10 -8 -16q-6 -6 -14 -6h-58h-6q-6 0 -10 4q-6 6 -6 16v692q-46 -26 -136 -80q-8 -4 -16 -2q-6 2 -10 8q-6 10 -16 30q-4 8 -4 14zM-48 18q0 8 6 20q366 650 1102 1954q6 10 16 12q12 2 20 2h42 q18 0 26 -12q2 -4 2 -12t-4 -18q-368 -650 -1102 -1954q-6 -10 -18 -12t-20 -2h-42q-18 0 -24 12q-4 4 -4 10zM646 224v22q180 200 542 600h40q12 0 20 -8q10 -8 10 -18v-530h110q12 0 18 -8q8 -8 8 -16v-44q0 -10 -8 -16q-6 -6 -18 -6h-112v-176q0 -10 -10 -18 q-8 -8 -20 -8h-48q-10 0 -20 8q-8 8 -8 18v172h-478q-10 0 -18 8t-8 20zM810 294h342v372z" />
<glyph unicode="&#xbd;" d="M-114 1844q2 8 12 16q70 50 208 150h36q10 0 20 -6q8 -6 8 -18v-802q0 -12 -6 -16q-8 -6 -16 -6h-58q-2 -2 -4 -2q-8 2 -12 6q-6 4 -6 16v692q-44 -26 -136 -80q-8 -4 -14 -2q-8 2 -12 8q-6 10 -16 28q-4 8 -4 16zM-36 22q0 8 6 18q368 652 1102 1954q6 12 18 14 q10 2 18 2h44q16 0 24 -12q4 -6 4 -12q0 -8 -6 -18q-368 -652 -1102 -1954q-6 -10 -18 -12t-18 -2h-44q-16 0 -24 12q-4 4 -4 10zM864 22v28q134 124 400 372q48 44 74 92q26 46 28 96q0 64 -52 118t-154 54q-80 0 -130 -38q-48 -38 -64 -56q-8 -10 -16 -8t-14 6 q-12 12 -36 34q-6 6 -8 12q-2 8 6 18l8 10t26 26q30 28 90 60t146 32q148 0 226 -76q78 -78 78 -182q0 -68 -34 -132q-36 -64 -96 -120q-102 -92 -308 -278h410q10 0 16 -6q4 -4 4 -16v-46q0 -8 -4 -16q-4 -6 -16 -6h-552q-12 0 -20 8q-8 6 -8 14z" />
<glyph unicode="&#xbe;" d="M-318 1264q0 6 8 14q12 10 32 30q8 10 18 10t18 -10q18 -14 68 -54q52 -38 162 -38q96 0 158 46q62 48 62 118q0 64 -56 114t-174 50h-130q-14 0 -18 8q-4 10 -4 20v36q0 10 6 16t16 6h130q88 0 148 38q60 40 60 120q0 70 -56 112q-56 44 -138 44q-96 0 -144 -38 q-50 -38 -60 -48q-8 -6 -16 -8t-14 6l-36 30q-8 10 -8 18q0 6 6 14l8 10q10 10 28 24q32 26 94 54q62 30 148 30q128 0 212 -64q82 -62 82 -172q0 -70 -46 -126q-48 -56 -102 -80l42 -20q44 -20 82 -66q22 -24 36 -56q14 -34 14 -76q0 -106 -90 -176t-238 -70h-8 q-126 0 -198 46q-74 46 -94 70q-6 8 -6 16q-2 0 -2 2zM-38 20q0 8 6 18q366 652 1100 1954q6 12 16 12q12 2 20 2h42q18 0 26 -10q2 -6 2 -12q0 -8 -4 -18q-368 -652 -1100 -1954q-6 -10 -18 -12t-20 -2h-42q-18 0 -24 10q-4 6 -4 12zM654 224v24q180 200 542 600h42 q10 0 18 -8q10 -8 10 -20v-530h112q12 0 20 -6q6 -8 6 -16v-46q0 -8 -6 -14q-8 -8 -20 -8h-112v-174q0 -10 -10 -18q-8 -8 -18 -8h-50q-10 0 -20 8q-8 8 -8 18v172h-480q-10 0 -18 8t-8 18zM818 294h342v374q-114 -124 -342 -374z" />
<glyph unicode="&#xbf;" d="M122 -496q0 64 18 118t46 96q54 82 134 140t148 110q58 42 98 84q38 44 38 98v164q0 18 10 28q8 12 28 12h54q20 0 28 -14q6 -12 6 -26v-168q0 -72 -38 -128t-96 -104q-38 -32 -78 -60q-42 -30 -82 -60q-74 -58 -128 -124q-56 -66 -56 -158q0 -110 92 -204 q90 -94 260 -94q124 0 208 42q84 40 132 82q26 24 44 44q16 20 26 30q2 2 4 6t2 8q-12 2 -22 8q-10 4 -20 14q-40 38 -38 84q4 46 36 78q36 36 80 34q46 0 84 -38q38 -36 38 -100q0 -6 -2 -14q-4 -74 -86 -166q-22 -28 -80 -82t-156 -94q-52 -22 -118 -36q-64 -14 -140 -14 q-218 0 -346 114t-128 290zM554 1050q0 48 34 82q34 32 82 32t82 -32q34 -34 34 -82q0 -50 -34 -82t-82 -32t-82 32t-34 82z" />
<glyph unicode="&#xc0;" d="M-512 14q0 8 4 16q294 666 884 1998q4 8 14 14t20 6h10q10 0 20 -4t16 -16l876 -1998q2 -6 2 -14q0 -4 -2 -8q-2 -12 -26 -12h-74q-16 0 -26 10q-10 8 -16 16q-76 176 -232 528h-780q-4 0 -10 -2t-10 -4q6 -10 8 -22q4 -12 4 -24q-4 -56 -40 -84t-80 -24q-52 2 -80 36 q-28 36 -26 88q2 62 68 108q64 46 202 40h696q-164 386 -490 1156h-6q-260 -598 -782 -1796q-4 -8 -14 -16q-10 -10 -26 -10h-80q-14 0 -20 8q-4 4 -4 10zM126 2550q0 80 48 118q40 30 80 30h8q46 -4 76 -44q28 -36 26 -82q-2 -44 -46 -78q-10 -8 -22 -12q-10 -4 -22 -6 q6 -22 20 -46t34 -48q60 -64 124 -86q64 -24 108 -30q26 -2 42 -2h20q20 2 28 -8q10 -8 10 -20v-38q-2 -14 -12 -20q-10 -8 -28 -10q-12 -2 -32 -2q-6 0 -12 2q-28 0 -64 6q-68 14 -148 54q-82 40 -150 130q-88 112 -88 192z" />
<glyph unicode="&#xc1;" d="M-458 18q0 8 4 16l882 1998q6 8 14 14q10 6 22 6h8q10 0 20 -4t18 -16q290 -666 874 -1998q2 -8 2 -14v-10q-4 -10 -28 -10h-74q-16 0 -26 8q-10 10 -14 18q-78 176 -232 528h-780q-6 -2 -12 -2q-4 -2 -10 -4q6 -10 10 -22t2 -24q-2 -56 -38 -84t-82 -26q-52 4 -80 38 t-26 88q4 62 68 108t202 40h696q-164 386 -490 1156h-6q-260 -598 -780 -1796q-4 -8 -16 -18q-10 -8 -24 -8h-80q-16 0 -22 8q-2 4 -2 10zM198 2206v38q0 14 8 22q10 8 28 6q10 0 56 2t106 26q34 14 68 34q34 22 64 56q22 24 36 48t20 46q-12 2 -24 6q-10 4 -20 12 q-46 34 -46 80q-2 44 24 80q32 42 78 44h6q42 0 80 -30q50 -38 50 -118t-88 -192q-36 -48 -78 -82q-42 -32 -84 -54q-78 -40 -146 -48q-46 -6 -74 -6h-26q-16 4 -26 10q-12 6 -12 20z" />
<glyph unicode="&#xc2;" d="M-458 18q0 8 4 16l882 1998q6 8 14 14q10 6 22 6h8q10 0 20 -4t18 -16q290 -666 874 -1998q2 -8 2 -14v-10q-4 -10 -28 -10h-74q-16 0 -26 8q-10 10 -14 18q-78 176 -232 528h-780q-6 -2 -12 -2q-4 -2 -10 -4q6 -10 10 -22t2 -24q-2 -56 -38 -84t-82 -26q-52 4 -80 38 t-26 88q4 62 68 108t202 40h696q-164 386 -490 1156h-6q-260 -598 -780 -1796q-4 -8 -16 -18q-10 -8 -24 -8h-80q-16 0 -22 8q-2 4 -2 10zM68 2254q0 2 2 6q4 10 14 20q116 92 348 280q6 6 14 10t14 4h10t14 -4t14 -10q116 -94 348 -280q10 -10 14 -20q2 -4 2 -6 q0 -8 -6 -14q-8 -12 -26 -32q-6 -10 -16 -14q-10 -6 -26 8l-324 240q-108 -80 -322 -240q-12 -10 -22 -10q-2 0 -4 2q-10 4 -18 14t-24 32q-6 6 -6 14z" />
<glyph unicode="&#xc3;" d="M-346 18q0 8 4 16q294 666 884 1998q4 8 14 14t20 6h8q12 0 22 -4t16 -16l876 -1998q2 -8 2 -14q0 -4 -2 -10q-2 -10 -26 -10h-76q-14 0 -24 8q-12 10 -16 18q-76 176 -232 528h-780q-4 -2 -10 -2q-6 -2 -10 -4q6 -10 8 -22q4 -12 4 -24q-4 -56 -40 -84t-80 -26 q-52 4 -80 38q-30 34 -26 88q2 62 68 108q64 46 202 40h696q-164 386 -492 1156h-4q-262 -598 -782 -1796q-4 -8 -14 -18q-10 -8 -26 -8h-80q-14 0 -20 8q-4 4 -4 10zM160 2336q0 6 2 12q6 14 16 38q10 26 24 54q30 54 84 104t144 50q100 0 142 -64q42 -66 78 -122 q20 -32 44 -54q24 -20 60 -20q80 0 114 64q36 66 50 104q4 16 16 22q14 6 26 -2q10 -2 32 -10q8 -4 14 -12q4 -6 4 -14v-12q-4 -12 -26 -72q-24 -60 -78 -110q-28 -28 -68 -46t-92 -18q-54 0 -88 20q-36 22 -62 54q-46 58 -78 124t-98 66q-80 0 -116 -70q-34 -68 -46 -108 q-6 -16 -16 -22q-12 -6 -28 2q-12 4 -34 14q-14 4 -18 16q-2 6 -2 12z" />
<glyph unicode="&#xc4;" d="M-326 16q0 6 4 16q294 666 884 1996q4 10 14 14q10 6 20 6h10q10 0 20 -2q10 -4 16 -18q292 -666 876 -1996q2 -8 2 -14t-2 -10q-2 -10 -26 -10h-74q-16 0 -26 8t-14 16l-234 528h-780q-4 0 -10 -2t-10 -2q6 -12 10 -24q2 -10 2 -24q-2 -56 -40 -82q-36 -28 -80 -26 q-52 2 -80 38q-28 34 -26 88q2 62 68 106q64 46 202 40h696q-164 386 -490 1158h-6q-260 -600 -782 -1798q-4 -8 -14 -16t-26 -8h-80q-14 0 -20 8q-4 4 -4 10zM216 2382q0 42 28 72q28 28 68 28q44 0 72 -28q26 -30 26 -72q0 -40 -26 -68q-28 -28 -72 -28q-40 0 -68 28 t-28 68zM766 2382q0 42 28 72q26 28 66 28q44 0 72 -28q30 -30 30 -72q0 -40 -30 -68q-28 -28 -72 -28q-40 0 -66 28q-28 28 -28 68z" />
<glyph unicode="&#xc5;" d="M-350 16q0 6 4 16q294 666 884 1996q4 10 14 14q10 6 20 6h8q12 0 22 -2q10 -4 16 -18q292 -666 876 -1996q2 -8 2 -14t-2 -10q-4 -10 -26 -10h-76q-14 0 -24 8q-12 8 -16 16q-76 176 -232 528h-780q-6 0 -10 -2q-6 -2 -10 -2q6 -12 8 -24q4 -10 4 -24q-4 -56 -40 -82 q-36 -28 -80 -26q-52 2 -80 38q-30 34 -26 88q2 62 66 106q66 46 204 40h696l-492 1158h-6q-260 -600 -780 -1798q-4 -8 -14 -16t-26 -8h-80q-16 0 -20 8q-4 4 -4 10zM268 2468q0 130 88 218q86 90 216 90q126 0 216 -90q90 -88 90 -218q0 -128 -90 -216t-216 -88 q-130 0 -216 88q-88 88 -88 216zM360 2468q0 -86 62 -148q64 -64 150 -64t148 64q64 62 64 148t-64 150q-62 62 -148 62t-150 -62q-62 -64 -62 -150z" />
<glyph unicode="&#xc6;" horiz-adv-x="2548" d="M0 12v4q0 14 10 30q408 636 1220 1910q14 22 28 36t44 14h1128q16 0 26 -12q12 -10 12 -26v-46q0 -14 -12 -26q-10 -10 -26 -10h-1060v-796h922q16 0 26 -10q12 -12 12 -26v-50q0 -14 -10 -26q-8 -10 -28 -10h-922v-850h1060q26 0 32 -12q6 -14 6 -28v-44q0 -14 -12 -26 q-10 -10 -26 -10h-1148q-16 0 -26 10q-12 12 -12 26v518h-762q-112 -176 -334 -528q-10 -16 -22 -22q-12 -4 -24 -4h-80q-20 0 -22 14zM548 662h696v1098z" />
<glyph unicode="&#xc7;" horiz-adv-x="1970" d="M40 1000q0 152 42 290q40 138 114 258q138 220 372 354q232 134 512 134q220 0 388 -70q170 -70 308 -196l4 -4t2 -4q50 -48 62 -96q2 -16 2 -32q0 -30 -12 -54q-24 -50 -66 -66t-88 6q-40 20 -58 62t6 92q4 8 10 16l12 12q-118 96 -262 150q-144 56 -308 56 q-244 0 -446 -120q-200 -118 -318 -312q-62 -104 -96 -224q-36 -120 -36 -252q0 -128 36 -248q34 -120 96 -224q118 -192 318 -310t446 -118q184 0 330 66q146 68 276 174q12 12 24 12q12 2 22 -6l48 -48q10 -8 10 -24q0 -14 -10 -24q-146 -142 -328 -212q-180 -68 -372 -68 q-280 0 -514 134q-232 132 -370 350q-74 118 -114 258q-42 138 -42 288zM936 -584q0 12 12 22q10 8 28 22q8 8 22 6q12 -2 24 -14q14 -16 48 -38q36 -22 98 -22q78 0 124 50t46 122q0 104 -86 144t-178 50q-20 6 -28 16q-6 10 -6 22v204h68h34v-154q130 -16 218 -84 q90 -68 90 -196q0 -114 -80 -196t-202 -82q-84 0 -144 34q-60 32 -80 64q-8 14 -8 26v4z" />
<glyph unicode="&#xc8;" d="M-166 38v724v1210q0 14 12 26q10 10 26 10h1150q16 0 26 -10q12 -12 12 -26v-50q0 -14 -12 -26q-10 -10 -26 -10h-1050v-792h910q14 0 26 -12t12 -26v-48q0 -16 -12 -28q-12 -10 -26 -10h-910v-850h872q-6 10 -8 22q-4 10 -2 22q2 56 38 84q38 28 82 26q52 -4 80 -38 q26 -32 26 -80v-10q-4 -56 -58 -100q-56 -42 -172 -46h-958q-16 0 -26 12q-12 10 -12 26zM126 2550q0 80 48 118q40 30 80 30h8q46 -4 76 -44q28 -36 26 -82q-2 -44 -46 -78q-10 -8 -22 -12q-10 -4 -22 -6q6 -22 20 -46t34 -48q60 -64 124 -86q64 -24 108 -30q26 -2 42 -2 h20q20 2 28 -8q10 -8 10 -20v-38q-2 -14 -12 -20q-10 -8 -28 -10q-12 -2 -32 -2q-6 0 -12 2q-28 0 -64 6q-68 14 -148 54q-82 40 -150 130q-88 112 -88 192z" />
<glyph unicode="&#xc9;" d="M-200 38v724v1210q0 14 10 26q12 10 26 10h1152q14 0 26 -10q10 -12 10 -26v-50q0 -14 -10 -26q-12 -10 -26 -10h-1052v-792h910q16 0 26 -12q12 -12 12 -26v-48q0 -16 -12 -28q-10 -10 -26 -10h-910v-850h872q-4 10 -8 22q-2 10 -2 22q4 56 40 84t80 26q52 -4 80 -38 q26 -32 26 -80v-10q-2 -56 -58 -100q-56 -42 -172 -46h-958q-14 0 -26 12q-10 10 -10 26zM198 2206v38q0 14 8 22q10 8 28 6q10 0 56 2t106 26q34 14 68 34q34 22 64 56q22 24 36 48t20 46q-12 2 -24 6q-10 4 -20 12q-46 34 -46 80q-2 44 24 80q32 42 78 44h6q42 0 80 -30 q50 -38 50 -118t-88 -192q-36 -48 -78 -82q-42 -32 -84 -54q-78 -40 -146 -48q-46 -6 -74 -6h-26q-16 4 -26 10q-12 6 -12 20z" />
<glyph unicode="&#xca;" d="M-18 38v724v1210q0 14 12 26q10 10 26 10h1150q14 0 26 -10q12 -12 12 -26v-50q0 -14 -12 -26q-12 -10 -26 -10h-1050v-792h910q14 0 26 -12q10 -12 10 -26v-48q0 -16 -10 -28q-12 -10 -26 -10h-910v-850h872q-6 10 -8 22q-4 10 -2 22q2 56 38 84t82 26q52 -4 80 -38 q26 -32 26 -80q0 -4 -2 -10q-2 -56 -58 -100q-54 -42 -170 -46h-958q-16 0 -26 12q-12 10 -12 26zM198 2254v6q6 10 16 20q116 92 348 280q6 6 14 10t14 4h8q8 0 16 -4t14 -10q116 -94 346 -280q12 -10 16 -20q2 -4 2 -6q0 -8 -6 -14q-8 -12 -26 -32q-6 -10 -16 -14 q-10 -6 -26 8l-324 240q-108 -80 -322 -240q-12 -10 -22 -10q-2 0 -6 2q-8 4 -16 14t-26 32q-4 6 -4 14z" />
<glyph unicode="&#xcb;" d="M-40 38v724v1210q0 14 12 26q10 10 26 10h1150q16 0 26 -10q12 -12 12 -26v-50q0 -14 -12 -26q-10 -10 -26 -10h-1050v-792h910q16 0 26 -12q12 -12 12 -26v-48q0 -16 -12 -28q-10 -10 -26 -10h-910v-850h872q-4 10 -8 22q-2 10 -2 22q2 56 40 84q36 28 80 26 q52 -4 80 -38q26 -32 26 -80v-10q-4 -56 -58 -100q-56 -42 -172 -46h-958q-16 0 -26 12q-12 10 -12 26zM216 2382q0 42 28 72q28 28 68 28q44 0 72 -28q26 -30 26 -72q0 -40 -26 -68q-28 -28 -72 -28q-40 0 -68 28t-28 68zM766 2382q0 42 28 72q26 28 66 28q44 0 72 -28 q30 -30 30 -72q0 -40 -30 -68q-28 -28 -72 -28q-40 0 -66 28q-28 28 -28 68z" />
<glyph unicode="&#xcc;" d="M126 2550q0 80 48 118q40 30 80 30h8q46 -4 76 -44q28 -36 26 -82q-2 -44 -46 -78q-10 -8 -22 -12q-10 -4 -22 -6q6 -22 20 -46t34 -48q60 -64 124 -86q64 -24 108 -30q26 -2 42 -2h20q20 2 28 -8q10 -8 10 -20v-38q-2 -14 -12 -20q-10 -8 -28 -10q-12 -2 -32 -2 q-6 0 -12 2q-28 0 -64 6q-68 14 -148 54q-82 40 -150 130q-88 112 -88 192zM516 34v914v1020q0 16 12 26q10 12 26 12h62q16 0 28 -12q10 -10 10 -26v-1288v-646q0 -16 -12 -26t-28 -10h-60q-16 0 -26 10q-12 12 -12 26z" />
<glyph unicode="&#xcd;" d="M198 2206v38q0 14 8 22q10 8 28 6q10 0 56 2t106 26q34 14 68 34q34 22 64 56q22 24 36 48t20 46q-12 2 -24 6q-10 4 -20 12q-46 34 -46 80q-2 44 24 80q32 42 78 44h6q42 0 80 -30q50 -38 50 -118t-88 -192q-36 -48 -78 -82q-42 -32 -84 -54q-78 -40 -146 -48 q-46 -6 -74 -6h-26q-16 4 -26 10q-12 6 -12 20zM210 38v724v1210q0 14 10 26q12 10 26 10h64q14 0 26 -10q10 -12 10 -26v-1070v-864q0 -18 -12 -28t-28 -10h-60q-14 0 -26 12q-10 10 -10 26z" />
<glyph unicode="&#xce;" d="M160 2254q0 2 2 6q4 10 16 20q116 92 346 280q8 6 16 10t14 4h8t14 -4t14 -10q116 -94 348 -280q10 -10 16 -20q2 -4 2 -6q0 -8 -6 -14q-8 -12 -26 -32q-6 -10 -16 -14q-10 -6 -28 8l-324 240q-106 -80 -320 -240q-14 -10 -22 -10q-4 0 -6 2q-10 4 -16 14q-8 10 -26 32 q-6 6 -6 14zM498 34v914v1020q0 16 12 26q10 12 26 12h64q14 0 26 -12q10 -10 10 -26v-1288v-646q0 -16 -12 -26t-28 -10h-60q-16 0 -26 10q-12 12 -12 26z" />
<glyph unicode="&#xcf;" d="M216 2382q0 42 28 72q28 28 68 28q44 0 72 -28q26 -30 26 -72q0 -40 -26 -68q-28 -28 -72 -28q-40 0 -68 28t-28 68zM530 34v914v1020q0 16 10 26q12 12 26 12h64q14 0 26 -12q10 -10 10 -26v-1178v-756q0 -16 -12 -26t-28 -10h-60q-14 0 -26 10q-10 12 -10 26zM766 2382 q0 42 28 72q26 28 66 28q44 0 72 -28q30 -30 30 -72q0 -40 -30 -68q-28 -28 -72 -28q-40 0 -66 28q-28 28 -28 68z" />
<glyph unicode="&#xd0;" d="M-274 992v14q0 16 10 26q10 12 24 12h102v930q0 14 8 26q10 10 26 10h608q146 0 280 -38q136 -40 252 -112q214 -132 346 -358q132 -224 132 -492q0 -274 -132 -498q-132 -226 -346 -360q-116 -70 -252 -110q-134 -40 -280 -40h-608q-16 0 -26 12q-8 10 -8 26v914h-102 q-14 0 -24 12t-10 26zM-4 126h484q244 0 442 112q200 112 314 300q64 100 98 220t34 252q0 130 -34 248t-98 220q-114 186 -314 298q-198 112 -442 112h-484v-844h718q14 0 26 -12q10 -10 10 -26v-16q0 -16 -10 -26q-12 -10 -26 -10h-718v-828z" />
<glyph unicode="&#xd1;" d="M-232 34v736v1226q0 18 12 28q14 10 30 10h50q458 -598 1376 -1794h4v1544q-8 -2 -16 -2q-8 -2 -16 0q-56 6 -82 44q-24 38 -18 84q6 50 42 76t90 20q56 -6 94 -62q40 -56 38 -166v-1774q0 -18 -14 -28q-14 -8 -32 -8h-38l-10 10q-8 8 -52 64q-20 24 -46 58 q-28 34 -66 84q-52 68 -130 168t-184 240q-152 200 -374 490q-220 290 -526 696h-4v-1744q0 -16 -10 -26q-12 -12 -26 -12h-54q-16 0 -28 12q-10 10 -10 26zM160 2336q0 6 2 12q6 14 16 38q10 26 24 54q30 54 84 104t144 50q100 0 142 -64q42 -66 78 -122q20 -32 44 -54 q24 -20 60 -20q80 0 114 64q36 66 50 104q4 16 16 22q14 6 26 -2q10 -2 32 -10q8 -4 14 -12q4 -6 4 -14v-12q-4 -12 -26 -72q-24 -60 -78 -110q-28 -28 -68 -46t-92 -18q-54 0 -88 20q-36 22 -62 54q-46 58 -78 124t-98 66q-80 0 -116 -70q-34 -68 -46 -108q-6 -16 -16 -22 q-12 -6 -28 2q-12 4 -34 14q-14 4 -18 16q-2 6 -2 12z" />
<glyph unicode="&#xd2;" d="M-670 1000q0 152 42 290q40 138 112 258q136 220 368 354t512 134q282 0 514 -134t368 -354q72 -120 114 -258q40 -138 40 -290q0 -280 -134 -510q-134 -232 -354 -366q-118 -74 -258 -114q-138 -40 -290 -40q-150 0 -288 40q-140 40 -258 114q-220 134 -354 364 q-134 232 -134 512zM-542 1000q0 -244 116 -446q118 -202 312 -322q104 -64 224 -100q122 -34 254 -34t252 34q122 36 226 100q194 118 312 322q120 202 120 446q0 132 -36 254t-100 226q-122 194 -326 312t-448 118q-132 0 -252 -36q-122 -34 -226 -100 q-194 -120 -312 -324q-116 -204 -116 -450zM126 2550q0 80 48 118q40 30 80 30h8q46 -4 76 -44q28 -36 26 -82q-2 -44 -46 -78q-10 -8 -22 -12q-10 -4 -22 -6q6 -22 20 -46t34 -48q60 -64 124 -86q64 -24 108 -30q26 -2 42 -2h20q20 2 28 -8q10 -8 10 -20v-38 q-2 -14 -12 -20q-10 -8 -28 -10q-12 -2 -32 -2q-6 0 -12 2q-28 0 -64 6q-68 14 -148 54q-82 40 -150 130q-88 112 -88 192z" />
<glyph unicode="&#xd3;" d="M-560 1000q0 152 40 290t114 258q136 220 368 354q230 134 510 134q152 0 290 -40q140 -40 258 -114q220 -136 354 -368q134 -234 134 -514t-134 -510q-132 -232 -354 -366q-118 -74 -256 -114q-140 -40 -292 -40q-280 0 -510 134q-232 132 -368 350q-74 120 -114 258 t-40 288zM-434 1000q0 -244 118 -446t310 -322q104 -64 226 -100q120 -34 252 -34t254 34q122 36 226 100q194 118 312 322q118 202 118 446q0 132 -36 254t-100 226q-120 194 -324 312t-450 118q-130 0 -252 -36q-122 -34 -226 -100q-192 -120 -310 -324t-118 -450z M198 2206v38q0 14 8 22q10 8 28 6q10 0 56 2t106 26q34 14 68 34q34 22 64 56q22 24 36 48t20 46q-12 2 -24 6q-10 4 -20 12q-46 34 -46 80q-2 44 24 80q32 42 78 44h6q42 0 80 -30q50 -38 50 -118t-88 -192q-36 -48 -78 -82q-42 -32 -84 -54q-78 -40 -146 -48 q-46 -6 -74 -6h-26q-16 4 -26 10q-12 6 -12 20z" />
<glyph unicode="&#xd4;" d="M-438 1000q0 280 134 512q134 234 354 370q118 74 256 114t288 40q152 0 290 -40q140 -40 258 -114q222 -136 354 -368q134 -234 134 -514t-132 -510q-134 -232 -356 -366q-118 -74 -256 -114q-140 -40 -292 -40q-278 0 -510 134q-232 132 -368 350q-74 120 -114 258 t-40 288zM-312 1000q0 -244 118 -446t310 -322q104 -64 226 -100q120 -34 252 -34t254 34q122 36 226 100q194 118 312 322q118 202 118 446q0 132 -36 254t-100 226q-120 194 -324 312t-450 118q-130 0 -252 -36q-120 -34 -226 -100q-192 -120 -310 -324t-118 -450z M178 2254q0 2 2 6q4 10 16 20q116 92 346 280q8 6 16 10t14 4h8t14 -4t14 -10q116 -94 348 -280q10 -10 16 -20q2 -4 2 -6q0 -8 -6 -14q-10 -12 -26 -32q-6 -10 -16 -14q-10 -6 -28 8l-324 240q-106 -80 -320 -240q-14 -10 -22 -10q-4 0 -6 2q-10 4 -16 14q-8 10 -26 32 q-6 6 -6 14z" />
<glyph unicode="&#xd5;" d="M-482 1000q0 152 40 290t114 258q136 220 366 354q232 134 512 134q152 0 290 -40t258 -114q220 -136 354 -368q134 -234 134 -514t-134 -510q-134 -232 -354 -366q-118 -74 -258 -114q-138 -40 -290 -40q-280 0 -512 134q-230 132 -366 350q-74 120 -114 258t-40 288z M-356 1000q0 -244 118 -446q116 -202 310 -322q104 -64 224 -100q122 -34 254 -34t254 34q120 36 226 100q194 118 312 322q118 202 118 446q0 132 -36 254t-100 226q-122 194 -326 312t-448 118q-132 0 -252 -36q-122 -34 -226 -100q-192 -120 -310 -324t-118 -450z M160 2336q0 6 2 12q6 14 16 38q10 26 24 54q30 54 84 104t144 50q100 0 142 -64q42 -66 78 -122q20 -32 44 -54q24 -20 60 -20q80 0 114 64q36 66 50 104q4 16 16 22q14 6 26 -2q10 -2 32 -10q8 -4 14 -12q4 -6 4 -14v-12q-4 -12 -26 -72q-24 -60 -78 -110q-28 -28 -68 -46 t-92 -18q-54 0 -88 20q-36 22 -62 54q-46 58 -78 124t-98 66q-80 0 -116 -70q-34 -68 -46 -108q-6 -16 -16 -22q-12 -6 -28 2q-12 4 -34 14q-14 4 -18 16q-2 6 -2 12z" />
<glyph unicode="&#xd6;" d="M-428 1000q0 152 42 290q40 138 112 258q136 220 368 354t512 134q150 0 290 -40q138 -40 258 -114q220 -136 354 -368q134 -234 134 -514t-134 -510q-134 -232 -354 -366q-118 -74 -258 -114q-138 -40 -290 -40q-280 0 -512 134q-232 132 -368 350q-72 120 -112 258 q-42 138 -42 288zM-300 1000q0 -244 116 -446q118 -202 312 -322q104 -64 224 -100q122 -34 254 -34t252 34q122 36 226 100q194 118 312 322q120 202 120 446q0 132 -36 254t-100 226q-122 194 -326 312t-448 118q-132 0 -252 -36q-122 -34 -226 -100q-194 -120 -312 -324 q-116 -204 -116 -450zM216 2382q0 42 28 72q28 28 68 28q44 0 72 -28q26 -30 26 -72q0 -40 -26 -68q-28 -28 -72 -28q-40 0 -68 28t-28 68zM766 2382q0 42 28 72q26 28 66 28q44 0 72 -28q30 -30 30 -72q0 -40 -30 -68q-28 -28 -72 -28q-40 0 -66 28q-28 28 -28 68z" />
<glyph unicode="&#xd7;" d="M82 22q0 8 8 18q142 182 422 548q-132 172 -398 518q-14 14 -6 28q6 12 24 12h74q10 0 22 -6t20 -20l336 -444h2q114 148 340 444q8 14 20 20t24 6h74q16 0 22 -12q8 -14 -6 -28l-396 -516q138 -184 416 -552q8 -10 8 -20q0 -4 -2 -8q-6 -12 -22 -12h-74q-10 0 -22 6 t-22 20l-360 480h-2q-120 -160 -358 -480q-10 -12 -20 -18q-12 -6 -24 -6h-74q-18 0 -24 12q-2 4 -2 10z" />
<glyph unicode="&#xd8;" d="M-508 1000q0 150 40 288t114 258q136 220 366 354q232 134 514 134q206 0 388 -74t320 -206q62 62 190 184q8 10 22 10q16 0 26 -10l12 -12q10 -10 10 -26q0 -14 -10 -26q-62 -60 -188 -184q122 -138 194 -314q70 -178 70 -376q0 -282 -134 -512q-134 -232 -354 -366 q-118 -74 -258 -114q-138 -38 -288 -38q-210 0 -392 72t-320 202q-62 -58 -184 -178q-8 -10 -24 -10q-14 0 -24 10l-12 12q-12 10 -12 26q0 14 12 26q60 60 180 178q-120 138 -190 314q-68 176 -68 378zM-382 1000q0 -176 60 -328q58 -154 164 -272q434 422 1302 1264 q-122 114 -282 180q-158 64 -336 64q-246 0 -450 -118q-202 -118 -322 -312q-64 -104 -100 -226t-36 -252zM-94 336q120 -114 280 -178q158 -62 340 -62q244 0 448 116q204 118 324 310q66 104 100 224q36 122 36 254q0 172 -60 326q-62 156 -168 276q-434 -422 -1300 -1266 z" />
<glyph unicode="&#xd9;" d="M-338 730v1240q0 14 12 26q10 10 26 10h60q14 0 26 -10q10 -12 10 -26v-1226q0 -278 164 -460t450 -182q290 0 454 180q166 182 166 458v1044q-6 -2 -12 -2q-6 -2 -14 0q-56 6 -80 44q-26 38 -20 84q6 50 44 76q28 22 68 22q10 0 22 -2q60 -8 100 -74q30 -50 30 -138 q0 -28 -2 -62v-1002q0 -116 -28 -220q-26 -102 -76 -190q-94 -162 -262 -256q-166 -94 -390 -94q-118 0 -222 28t-190 80q-158 98 -248 268q-88 170 -88 384zM126 2550q0 80 48 118q40 30 80 30h8q46 -4 76 -44q28 -36 26 -82q-2 -44 -46 -78q-10 -8 -22 -12q-10 -4 -22 -6 q6 -22 20 -46t34 -48q60 -64 124 -86q64 -24 108 -30q26 -2 42 -2h20q20 2 28 -8q10 -8 10 -20v-38q-2 -14 -12 -20q-10 -8 -28 -10q-12 -2 -32 -2q-6 0 -12 2q-28 0 -64 6q-68 14 -148 54q-82 40 -150 130q-88 112 -88 192z" />
<glyph unicode="&#xda;" horiz-adv-x="1670" d="M164 730v1240q0 14 10 26q12 10 28 10h60q14 0 26 -10q10 -12 10 -26v-1226q0 -278 164 -460t450 -182q290 0 454 180q166 182 166 458v1044q-6 -2 -12 -2q-6 -2 -14 0q-56 6 -80 44q-26 38 -20 84q6 50 44 76q28 22 68 22q10 0 22 -2q60 -8 100 -74q30 -50 30 -138 q0 -28 -2 -62v-1002q0 -116 -28 -220q-26 -102 -76 -190q-94 -162 -262 -256q-166 -94 -390 -94q-220 0 -386 94q-168 96 -260 256q-50 88 -76 192q-26 102 -26 218zM678 2206v38q0 14 10 22q8 8 28 6q8 0 54 2q48 2 108 26q32 14 66 34q34 22 66 56q20 24 34 48t20 46 q-12 2 -24 6q-10 4 -20 12q-44 34 -46 80q-2 44 24 80q32 42 78 44h8q40 0 78 -30q50 -38 50 -118t-88 -192q-36 -48 -78 -82q-42 -32 -84 -54q-78 -40 -146 -48q-46 -6 -74 -6h-24q-18 4 -28 10q-12 6 -12 20z" />
<glyph unicode="&#xdb;" d="M-172 730v1240q0 14 12 26q10 10 26 10h60q14 0 26 -10q10 -12 10 -26v-1226q0 -278 164 -460t450 -182q290 0 454 180q166 182 166 458v1044q-6 -2 -12 -2q-6 -2 -14 0q-56 6 -80 44q-26 38 -20 84q6 50 44 76q28 22 70 22q8 0 20 -2q60 -8 100 -74q30 -50 30 -138 q0 -28 -2 -62v-1002q0 -116 -28 -220q-26 -102 -76 -190q-94 -162 -262 -256q-166 -94 -390 -94q-118 0 -222 28t-190 80q-158 98 -246 268q-90 170 -90 384zM186 2254q0 2 2 6q4 10 14 20q116 92 348 280q6 6 14 10t14 4h10t14 -4t14 -10q116 -94 348 -280q10 -10 14 -20 q2 -4 2 -6q0 -8 -6 -14q-8 -12 -26 -32q-6 -10 -16 -14q-10 -6 -26 8l-324 240q-108 -80 -322 -240q-12 -10 -22 -10q-2 0 -4 2q-10 4 -16 14q-10 10 -26 32q-6 6 -6 14z" />
<glyph unicode="&#xdc;" d="M-180 730v1240q0 14 12 26q12 10 26 10h60q16 0 26 -10q12 -12 12 -26v-1226q0 -278 164 -460t450 -182q288 0 454 180q166 182 166 458v1044q-6 -2 -14 -2q-6 -2 -12 0q-56 6 -82 44q-24 38 -18 84q6 50 42 76q30 22 70 22q10 0 20 -2q60 -8 102 -74q30 -50 30 -138 q0 -28 -4 -62v-1002q0 -116 -26 -220q-26 -102 -78 -190q-92 -162 -260 -256t-390 -94t-388 94q-166 96 -258 256q-50 88 -76 192q-28 102 -28 218zM216 2382q0 42 28 72q28 28 68 28q44 0 72 -28q26 -30 26 -72q0 -40 -26 -68q-28 -28 -72 -28q-40 0 -68 28t-28 68z M766 2382q0 42 28 72q26 28 66 28q44 0 72 -28q30 -30 30 -72q0 -40 -30 -68q-28 -28 -72 -28q-40 0 -66 28q-28 28 -28 68z" />
<glyph unicode="&#xdd;" horiz-adv-x="1682" d="M82 1986q0 6 2 10q8 14 28 14h88q10 0 20 -6q10 -4 16 -12q218 -298 654 -892q182 242 542 726q-8 2 -14 6q-8 4 -14 10q-42 38 -42 84q2 46 32 78q36 38 80 40q46 0 84 -36q42 -38 42 -106t-64 -156v-2q-194 -254 -580 -764v-942q0 -16 -10 -26q-12 -12 -26 -12 q-28 0 -64 2q-34 2 -34 36v938l-732 990q-8 12 -8 20zM554 2244q0 14 10 22t28 6q10 0 56 2t106 26q32 14 66 34q34 22 66 56q22 24 36 48t20 46q-14 2 -24 6q-12 4 -22 12q-44 34 -46 80q-2 44 26 80q32 42 76 44h8q40 0 80 -30q50 -38 48 -118q0 -80 -86 -192 q-38 -48 -80 -82q-42 -32 -82 -54q-80 -40 -148 -48q-44 -6 -74 -6h-24q-18 4 -28 10t-10 20q0 12 -2 38z" />
<glyph unicode="&#xde;" d="M0 40v724v1210q0 14 12 26q10 10 26 10h60q14 0 26 -10q10 -12 10 -26v-318h520q94 0 180 -26t160 -72q138 -84 224 -228q84 -144 84 -314q0 -96 -24 -182q-26 -88 -72 -162q-86 -140 -232 -224q-144 -84 -316 -84h-524v-324q0 -16 -12 -26q-12 -12 -34 -12h-50 q-16 0 -26 12q-12 10 -12 26zM134 494h514q74 0 144 20q68 20 128 58q110 68 180 186q68 118 68 260q0 74 -22 142q-20 68 -58 124q-70 108 -186 172q-118 64 -256 64h-512v-1026z" />
<glyph unicode="&#xdf;" horiz-adv-x="1508" d="M164 38v428v712q0 428 156 644q158 216 456 216q64 0 128 -12t120 -38q106 -46 174 -142t68 -250q0 -70 -20 -134q-22 -62 -52 -120q-56 -106 -118 -188q-62 -84 -62 -144q0 -34 46 -78l112 -98q34 -30 70 -66q36 -34 68 -74q50 -62 82 -136q34 -76 34 -166 q0 -144 -66 -236t-170 -136q-54 -24 -116 -36t-126 -12q-166 0 -242 38q-74 36 -66 60l18 54q4 14 14 22q12 10 28 2q20 -12 92 -38t156 -26q142 0 246 78q104 76 104 230q0 76 -34 138q-36 64 -86 120q-60 68 -130 124q-70 58 -116 112q-26 30 -42 60q-14 28 -14 60 q0 74 64 168q66 94 124 196q30 54 52 110q20 56 20 110q0 172 -112 252q-114 82 -252 82q-236 0 -360 -188q-122 -186 -122 -558v-1140q0 -18 -8 -28q-10 -10 -30 -10h-56q-16 0 -24 12t-8 26z" />
<glyph unicode="&#xe0;" horiz-adv-x="1118" d="M102 354q0 166 128 276t354 110q100 0 182 -20q84 -22 108 -30q0 188 -42 284q-40 94 -210 94q-82 0 -148 -14q-64 -14 -110 -30q-10 -4 -20 -10q-10 -4 -18 -10q10 -10 16 -18q6 -10 10 -24q12 -54 -14 -90q-26 -38 -70 -48q-50 -12 -88 12q-36 26 -50 78q-12 48 18 102 q32 52 118 90q40 18 134 44t230 26q170 0 246 -60q76 -62 100 -170q12 -56 16 -126q2 -68 2 -144v-638q0 -14 -10 -26q-12 -10 -26 -10h-36q-14 0 -22 8t-12 22q-4 34 -12 104q-56 -52 -158 -108t-240 -56q-160 0 -268 102q-108 104 -108 280zM220 356q0 -124 78 -198 q76 -74 194 -74q132 0 236 62q106 62 146 116v24v292q-28 12 -108 36q-78 24 -182 24q-164 0 -264 -78q-100 -76 -100 -204zM310 1970q0 80 48 118q40 30 80 30h8q44 -4 76 -44q28 -36 26 -82t-46 -80q-10 -8 -22 -10q-10 -4 -24 -6q8 -22 20 -46q14 -24 36 -50 q32 -32 66 -54t66 -34q60 -24 106 -26q48 -2 56 -2q18 0 28 -8t10 -22q0 -12 -2 -36q0 -14 -10 -20q-10 -8 -28 -10q-12 -2 -32 -2h-12q-30 2 -64 8q-68 12 -150 54q-80 40 -150 128q-86 112 -86 194z" />
<glyph unicode="&#xe1;" horiz-adv-x="1118" d="M102 354q0 166 128 276t354 110q100 0 182 -20q84 -22 108 -30q0 188 -42 284q-40 94 -210 94q-82 0 -148 -14q-64 -14 -110 -30q-10 -4 -20 -10q-10 -4 -18 -10q10 -10 16 -18q6 -10 10 -24q12 -54 -14 -90q-26 -38 -70 -48q-50 -12 -88 12q-36 26 -50 78q-12 48 18 102 q32 52 118 90q40 18 134 44t230 26q170 0 246 -60q76 -62 100 -170q12 -56 16 -126q2 -68 2 -144v-638q0 -14 -10 -26q-12 -10 -26 -10h-36q-14 0 -22 8t-12 22q-4 34 -12 104q-56 -52 -158 -108t-240 -56q-160 0 -268 102q-108 104 -108 280zM220 356q0 -124 78 -198 q76 -74 194 -74q132 0 236 62q106 62 146 116v24v292q-28 12 -108 36q-78 24 -182 24q-164 0 -264 -78q-100 -76 -100 -204zM284 1652q0 14 10 22t28 8q8 0 56 2q46 0 106 24q32 14 66 36q34 20 66 54q22 24 34 48q14 24 22 48q-14 0 -24 4q-12 4 -22 12q-44 34 -46 80 t26 80q32 42 76 46h8q40 0 80 -30q48 -38 48 -120q0 -80 -86 -192q-38 -48 -80 -80q-42 -34 -82 -56q-80 -40 -148 -48q-46 -6 -74 -6q-14 0 -24 2q-18 2 -28 8q-10 8 -10 22q0 12 -2 36z" />
<glyph unicode="&#xe2;" horiz-adv-x="1096" d="M82 354q0 166 128 276t354 110q98 0 182 -20q84 -22 108 -30q0 188 -42 284q-42 94 -210 94q-82 0 -148 -14t-110 -30q-12 -4 -20 -10q-10 -4 -18 -10q8 -10 16 -18q6 -10 8 -24q14 -54 -12 -90q-26 -38 -70 -48q-50 -12 -88 12q-38 26 -50 78q-12 48 18 102 q30 52 118 90q40 18 134 44t230 26q170 0 246 -60q74 -62 98 -170q14 -56 16 -126q4 -68 4 -144v-638q0 -14 -12 -26q-10 -10 -26 -10h-34q-14 0 -22 8t-12 22q-4 34 -12 104q-56 -52 -158 -108t-240 -56q-160 0 -268 102q-108 104 -108 280zM132 1626q0 2 2 6q4 10 16 20 q114 92 346 280q6 6 14 10t16 4h8t14 -4t14 -10q116 -94 348 -280q10 -10 14 -20q2 -4 2 -6q0 -8 -4 -14q-10 -12 -26 -32q-8 -10 -16 -14q-10 -6 -28 8l-324 240q-108 -80 -322 -240q-12 -10 -20 -10q-4 0 -6 2q-10 4 -16 14q-10 10 -26 32q-6 6 -6 14zM200 356 q0 -124 76 -198q78 -74 196 -74q132 0 236 62t146 116v24v292q-28 12 -108 36t-182 24q-164 0 -264 -78q-100 -76 -100 -204z" />
<glyph unicode="&#xe3;" horiz-adv-x="1096" d="M82 354q0 166 128 276t354 110q98 0 182 -20q84 -22 108 -30q0 188 -42 284q-42 94 -210 94q-82 0 -148 -14t-110 -30q-12 -4 -20 -10q-10 -4 -18 -10q8 -10 16 -18q6 -10 8 -24q14 -54 -12 -90q-26 -38 -70 -48q-50 -12 -88 12q-38 26 -50 78q-12 48 18 102 q30 52 118 90q40 18 134 44t230 26q170 0 246 -60q74 -62 98 -170q14 -56 16 -126q4 -68 4 -144v-638q0 -14 -12 -26q-10 -10 -26 -10h-34q-14 0 -22 8t-12 22q-4 34 -12 104q-56 -52 -158 -108t-240 -56q-160 0 -268 102q-108 104 -108 280zM126 1702q0 6 2 12q6 14 14 38 q10 26 26 54q30 54 84 104q54 52 142 52q102 0 144 -66q42 -64 78 -122q20 -32 44 -52q24 -22 60 -22q78 0 114 66q36 64 48 104q4 14 18 20q12 6 26 0q10 -4 32 -12q8 -4 14 -12q4 -6 4 -14q0 -4 -2 -12q-2 -10 -26 -70q-22 -60 -76 -112q-30 -28 -70 -46t-92 -18t-88 22 q-34 20 -60 52q-46 58 -78 124t-98 66q-82 0 -116 -68q-34 -70 -48 -110q-4 -16 -16 -20q-12 -6 -26 0q-12 4 -34 14q-14 4 -18 16q-2 6 -2 12zM200 356q0 -124 76 -198q78 -74 196 -74q132 0 236 62t146 116v24v292q-28 12 -108 36t-182 24q-164 0 -264 -78 q-100 -76 -100 -204z" />
<glyph unicode="&#xe4;" horiz-adv-x="1096" d="M82 354q0 166 128 276t354 110q98 0 182 -20q84 -22 108 -30q0 188 -42 284q-42 94 -210 94q-82 0 -148 -14t-110 -30q-12 -4 -20 -10q-10 -4 -18 -10q8 -10 16 -18q6 -10 8 -24q14 -54 -12 -90q-26 -38 -70 -48q-50 -12 -88 12q-38 26 -50 78q-12 48 18 102 q30 52 118 90q40 18 134 44t230 26q170 0 246 -60q74 -62 98 -170q14 -56 16 -126q4 -68 4 -144v-638q0 -14 -12 -26q-10 -10 -26 -10h-34q-14 0 -22 8t-12 22q-4 34 -12 104q-56 -52 -158 -108t-240 -56q-160 0 -268 102q-108 104 -108 280zM168 1804q0 44 28 72 q28 30 68 30q44 0 72 -30q26 -28 26 -72q0 -38 -26 -66q-28 -28 -72 -28q-40 0 -68 28t-28 66zM200 356q0 -124 76 -198q78 -74 196 -74q132 0 236 62t146 116v24v292q-28 12 -108 36t-182 24q-164 0 -264 -78q-100 -76 -100 -204zM718 1804q0 44 28 72q26 30 66 30 q44 0 72 -30q30 -28 30 -72q0 -38 -30 -66q-28 -28 -72 -28q-40 0 -66 28q-28 28 -28 66z" />
<glyph unicode="&#xe5;" horiz-adv-x="1096" d="M82 354q0 166 128 276t354 110q98 0 182 -20q84 -22 108 -30q0 188 -42 284q-42 94 -210 94q-82 0 -148 -14t-110 -30q-12 -4 -20 -10q-10 -4 -18 -10q8 -10 16 -18q6 -10 8 -24q14 -54 -12 -90q-26 -38 -70 -48q-50 -12 -88 12q-38 26 -50 78q-12 48 18 102 q30 52 118 90q40 18 134 44t230 26q170 0 246 -60q74 -62 98 -170q14 -56 16 -126q4 -68 4 -144v-638q0 -14 -12 -26q-10 -10 -26 -10h-34q-14 0 -22 8t-12 22q-4 34 -12 104q-56 -52 -158 -108t-240 -56q-160 0 -268 102q-108 104 -108 280zM200 356q0 -124 76 -198 q78 -74 196 -74q132 0 236 62t146 116v24v292q-28 12 -108 36t-182 24q-164 0 -264 -78q-100 -76 -100 -204zM246 1736q0 130 90 218q88 90 218 90q126 0 214 -90q90 -88 90 -218q0 -128 -90 -216q-88 -88 -214 -88q-130 0 -218 88q-90 88 -90 216zM338 1736q0 -86 64 -148 q66 -64 152 -64q84 0 146 64q62 62 62 148t-62 150q-62 62 -146 62q-86 0 -152 -62q-64 -64 -64 -150z" />
<glyph unicode="&#xe6;" horiz-adv-x="1938" d="M82 364q0 166 124 272q126 108 340 108q110 0 196 -14q86 -16 108 -24q0 192 -38 278q-40 86 -204 86q-150 0 -244 -34q-96 -36 -116 -42q-14 -6 -26 0q-12 8 -16 22q-4 16 -12 46q-2 12 6 22q6 10 20 16l110 40q110 42 282 42q144 0 222 -42q76 -42 108 -126 q74 78 172 124q100 44 222 44q226 0 372 -148q148 -148 148 -376q0 -36 -6 -74t-38 -38h-850v-242q58 -94 158 -154q100 -58 224 -58q114 0 200 36q88 36 140 70q18 14 30 14q10 2 20 -14q10 -14 30 -40q6 -8 4 -20q-4 -12 -16 -26q-44 -42 -162 -88q-120 -46 -254 -46 t-238 50q-106 52 -182 144q-58 -68 -178 -132q-122 -62 -268 -62q-168 0 -278 104t-110 282zM196 362q0 -136 88 -204q86 -68 202 -68q124 0 226 54q100 54 142 108v346q-16 4 -96 22q-80 20 -196 20q-158 0 -262 -76t-104 -202zM962 648h766q0 168 -98 294 q-100 126 -294 126q-124 0 -222 -56q-96 -54 -152 -146v-62v-156z" />
<glyph unicode="&#xe7;" horiz-adv-x="1250" d="M62 574q0 90 24 172q24 80 68 150q80 128 216 204t294 76q152 0 256 -56q104 -54 150 -104q82 -80 94 -148q2 -16 2 -32q2 -46 -26 -80q-34 -42 -78 -50q-44 -6 -84 26q-36 28 -44 74q-8 44 26 88q8 8 16 14q10 6 20 10q0 2 -2 2q-22 24 -108 78t-222 54 q-196 0 -334 -136q-140 -134 -140 -340q0 -208 140 -346t330 -138q106 0 178 34q74 34 118 72q24 20 40 36q16 18 24 28q14 16 28 18q12 0 26 -14q10 -8 32 -28q10 -10 14 -22q2 -10 -6 -24q-12 -18 -34 -42t-56 -50q-60 -48 -152 -88t-208 -40q-86 0 -164 22 q-80 22 -150 64q-128 78 -208 212t-80 304zM486 -584q0 12 12 22q10 8 28 22q8 8 22 6q12 -2 24 -14q14 -16 48 -38q36 -22 98 -22q78 0 124 50t46 122q0 104 -86 144t-178 50q-20 6 -28 16q-6 10 -6 22v204h68h34v-154q130 -16 218 -84q90 -68 90 -196q0 -114 -80 -196 t-202 -82q-84 0 -144 34q-60 32 -80 64q-8 14 -8 26v4z" />
<glyph unicode="&#xe8;" horiz-adv-x="1248" d="M82 576q0 86 20 166q18 80 56 148q68 128 194 206q124 78 294 78q226 0 374 -148q146 -148 146 -376q0 -34 -6 -72q-4 -40 -36 -40h-916q8 -184 132 -318q122 -134 316 -134q46 0 90 6q42 8 80 18v2h-2q6 2 12 2l12 4l20 8l20 8l20 10q10 6 18 12q-10 8 -16 18 q-8 10 -12 22q-16 54 10 92q24 38 68 50q50 16 88 -8t54 -76q10 -38 -4 -80t-62 -78q-50 -42 -164 -84t-242 -42q-262 0 -412 178q-152 176 -152 428zM210 642h830q0 168 -100 292q-100 126 -294 126q-188 0 -306 -120q-118 -122 -130 -298zM370 1972q0 80 50 118 q38 30 78 30h8q46 -4 76 -44q28 -36 26 -82t-46 -80q-10 -8 -22 -12q-10 -4 -22 -4q6 -22 20 -48q14 -24 34 -48q32 -32 66 -54t66 -36q60 -22 108 -24q46 -2 54 -2q20 0 28 -8q10 -8 10 -22v-36q-2 -14 -12 -22q-10 -6 -28 -8q-10 -2 -24 -2q-28 0 -74 6q-68 8 -146 48 q-42 22 -84 56q-42 32 -78 80q-88 112 -88 194z" />
<glyph unicode="&#xe9;" horiz-adv-x="1248" d="M82 576q0 86 20 166q18 80 56 148q68 128 194 206q124 78 294 78q226 0 374 -148q146 -148 146 -376q0 -34 -6 -72q-4 -40 -36 -40h-916q8 -184 132 -318q122 -134 316 -134q46 0 90 6q42 8 80 18v2h-2q6 2 12 2l12 4l20 8l20 8l20 10q10 6 18 12q-10 8 -16 18 q-8 10 -12 22q-16 54 10 92q24 38 68 50q50 16 88 -8t54 -76q10 -38 -4 -80t-62 -78q-50 -42 -164 -84t-242 -42q-262 0 -412 178q-152 176 -152 428zM210 642h830q0 168 -100 292q-100 126 -294 126q-188 0 -306 -120q-118 -122 -130 -298zM360 1616v36q0 14 10 22t28 8 q8 0 54 2q48 0 108 24q32 14 66 36q34 20 66 54q20 24 34 48t20 48q-12 0 -22 4q-12 4 -22 12q-44 34 -46 80t26 80q32 42 76 46h8q40 0 80 -30q48 -38 48 -120q0 -80 -88 -192q-36 -48 -78 -80q-42 -34 -84 -56q-78 -40 -146 -48q-46 -6 -74 -6q-14 0 -24 2q-18 2 -28 8 q-10 8 -12 22z" />
<glyph unicode="&#xea;" horiz-adv-x="1248" d="M82 576q0 86 20 166q18 80 56 148q68 128 194 206q124 78 294 78q226 0 374 -148q146 -148 146 -376q0 -34 -6 -72q-4 -40 -36 -40h-916q8 -184 132 -318q122 -134 316 -134q46 0 90 6q42 8 80 18v2h-2q6 2 12 2l12 4l20 8l20 8l20 10q10 6 18 12q-10 8 -16 18 q-8 10 -12 22q-16 54 10 92q24 38 68 50q50 16 88 -8t54 -76q10 -38 -4 -80t-62 -78q-50 -42 -164 -84t-242 -42q-262 0 -412 178q-152 176 -152 428zM210 642h830q0 168 -100 292q-100 126 -294 126q-188 0 -306 -120q-118 -122 -130 -298zM218 1626q0 2 2 6q4 10 14 20 q116 92 348 280q6 6 14 10t14 4h10t14 -4t14 -10q116 -94 346 -280q12 -10 16 -20q2 -4 2 -6q0 -8 -6 -14q-8 -12 -26 -32q-6 -10 -16 -14q-10 -6 -26 8l-324 240q-108 -80 -322 -240q-12 -10 -22 -10q-2 0 -4 2q-10 4 -18 14t-24 32q-6 6 -6 14z" />
<glyph unicode="&#xeb;" horiz-adv-x="1248" d="M82 576q0 86 20 166q18 80 56 148q68 128 194 206q124 78 294 78q226 0 374 -148q146 -148 146 -376q0 -34 -6 -72q-4 -40 -36 -40h-916q8 -184 132 -318q122 -134 316 -134q46 0 90 6q42 8 80 18v2h-2q6 2 12 2l12 4l20 8l20 8l20 10q10 6 18 12q-10 8 -16 18 q-8 10 -12 22q-16 54 10 92q24 38 68 50q50 16 88 -8t54 -76q10 -38 -4 -80t-62 -78q-50 -42 -164 -84t-242 -42q-262 0 -412 178q-152 176 -152 428zM210 642h830q0 168 -100 292q-100 126 -294 126q-188 0 -306 -120q-118 -122 -130 -298zM248 1804q0 44 28 72 q30 30 70 30q42 0 70 -30q28 -28 28 -72q0 -38 -28 -66t-70 -28q-40 0 -70 28q-28 28 -28 66zM800 1804q0 44 26 72q28 30 68 30q44 0 72 -30q28 -28 28 -72q0 -38 -28 -66t-72 -28q-40 0 -68 28q-26 28 -26 66z" />
<glyph unicode="&#xec;" horiz-adv-x="502" d="M-16 1966q0 80 50 118q38 30 78 30h8q46 -4 78 -44q26 -36 24 -82t-46 -80q-10 -8 -20 -12l-24 -4q6 -22 20 -46q14 -26 34 -50q32 -32 66 -54t66 -34q60 -24 108 -26q46 -2 54 -2q20 0 28 -8q10 -8 10 -22v-36q0 -14 -12 -20q-10 -8 -28 -10q-12 -2 -32 -2h-12 q-28 2 -64 8q-66 12 -148 54q-82 40 -150 128q-88 112 -88 194zM198 38v402v670q0 16 12 26q10 12 26 12h52q14 0 26 -12q10 -10 10 -26v-1072q0 -18 -8 -28q-10 -10 -28 -10h-58q-16 0 -24 12q-8 10 -8 26z" />
<glyph unicode="&#xed;" horiz-adv-x="502" d="M-22 1616v36q0 14 10 22q8 8 28 8q8 0 54 2q48 0 108 24q32 14 66 36q34 20 66 54q20 24 34 48t20 48q-12 0 -24 4q-10 4 -20 12q-44 34 -46 80t26 80q30 42 76 46h8q40 0 78 -30q50 -38 50 -120q0 -80 -88 -192q-36 -48 -78 -80q-42 -34 -84 -56q-78 -40 -146 -48 q-46 -6 -74 -6q-14 0 -24 2q-18 2 -28 8q-12 8 -12 22zM198 38v402v670q0 16 12 26q10 12 26 12h52q14 0 26 -12q10 -10 10 -26v-1072q0 -18 -8 -28q-10 -10 -28 -10h-58q-16 0 -24 12q-8 10 -8 26z" />
<glyph unicode="&#xee;" horiz-adv-x="524" d="M-130 1626v6q6 10 16 20q116 92 348 280q6 6 14 10t14 4h8q8 0 14 -4q8 -4 16 -10q116 -94 346 -280q12 -10 16 -20q2 -4 2 -6q0 -8 -6 -14q-8 -12 -26 -32q-6 -10 -16 -14q-10 -6 -26 8q-108 80 -326 240q-106 -80 -320 -240q-14 -10 -22 -10q-2 0 -6 2q-10 4 -16 14 q-8 10 -26 32q-6 6 -4 14zM198 38v402v670q0 16 12 26q10 12 26 12h52q14 0 26 -12q10 -10 10 -26v-1072q0 -18 -8 -28q-10 -10 -28 -10h-58q-16 0 -24 12q-8 10 -8 26z" />
<glyph unicode="&#xef;" horiz-adv-x="524" d="M-112 1804q0 44 28 72q30 30 70 30q42 0 70 -30q28 -28 28 -72q0 -38 -28 -66t-70 -28q-40 0 -70 28q-28 28 -28 66zM198 38v402v670q0 16 12 26q10 12 26 12h52q14 0 26 -12q10 -10 10 -26v-1072q0 -18 -8 -28q-10 -10 -28 -10h-58q-16 0 -24 12q-8 10 -8 26zM440 1804 q0 44 26 72q28 30 68 30q44 0 72 -30q28 -28 28 -72q0 -38 -28 -66t-72 -28q-40 0 -68 28q-26 28 -26 66z" />
<glyph unicode="&#xf0;" d="M-72 632q0 100 26 188t72 158q86 134 226 208t300 74q76 0 144 -14q66 -14 124 -38q106 -42 174 -96q68 -56 90 -84q-34 206 -152 364q-116 160 -254 272l-330 -192q-14 -6 -28 -2t-22 16q-2 4 -8 14q-8 14 -4 28q2 14 16 22q100 56 298 172q-116 80 -206 124 q-88 46 -138 64q-18 8 -22 18q-4 12 4 28q8 18 20 50q4 10 16 14q6 2 12 2t12 -2q66 -24 178 -80q114 -58 238 -152l198 114q16 8 30 4q14 -6 22 -18q4 -4 8 -14q8 -14 4 -28q-4 -12 -18 -22q-54 -32 -166 -96q172 -150 310 -380t138 -560q0 -222 -72 -404 q-72 -184 -214 -292q-76 -58 -172 -88q-96 -32 -214 -32q-168 0 -312 84q-144 86 -230 228q-46 76 -72 164t-26 184zM54 626q0 -78 20 -148q22 -72 58 -132q68 -114 182 -184q116 -70 254 -70q96 0 176 28q78 28 140 78q116 94 172 246q58 154 58 324q0 24 -2 44 q-2 22 -4 42q-4 6 -66 78q-60 70 -176 132q-62 32 -138 56q-76 22 -168 22q-72 0 -138 -18q-68 -20 -126 -56q-106 -64 -174 -180q-68 -114 -68 -262z" />
<glyph unicode="&#xf1;" horiz-adv-x="1284" d="M40 1258q0 8 2 18q6 50 42 76q30 22 70 22q10 0 20 -2q52 -6 92 -56q38 -50 40 -150v-2v-2v-156q40 38 148 104t266 66q240 0 352 -142q110 -142 110 -384v-614q0 -14 -12 -26q-10 -10 -26 -10h-52q-14 0 -26 10q-10 12 -10 26v614q0 198 -90 300q-88 102 -252 102 q-114 0 -204 -46q-88 -46 -142 -90q-28 -22 -44 -40q-18 -18 -20 -22v-818q0 -16 -10 -26q-8 -10 -28 -10h-54q-16 0 -24 10q-8 12 -8 26v870v2v244q-8 -2 -18 -4t-20 0q-56 6 -80 44q-20 32 -22 66zM252 1702q0 6 2 12q6 14 16 38q10 26 26 54q28 54 82 104q54 52 144 52 q100 0 142 -66q42 -64 78 -122q20 -32 44 -52q24 -22 60 -22q80 0 116 66q34 64 48 104q4 14 16 20q14 6 26 0q12 -4 32 -12q8 -4 16 -12q4 -6 4 -14q0 -4 -2 -12q-4 -10 -26 -70q-24 -60 -78 -112q-28 -28 -68 -46t-92 -18q-54 0 -88 22q-36 20 -60 52q-48 58 -80 124 t-96 66q-82 0 -118 -68q-34 -70 -46 -110q-4 -16 -16 -20q-12 -6 -28 0q-10 4 -34 14q-12 4 -18 16q-2 6 -2 12z" />
<glyph unicode="&#xf2;" horiz-adv-x="1276" d="M62 576q0 86 22 166t62 148q76 128 204 208q130 78 288 78q156 0 286 -78q130 -80 204 -208q42 -68 64 -148t22 -166q0 -162 -74 -298t-198 -216q-66 -44 -142 -66q-78 -24 -162 -24q-158 0 -286 78q-130 78 -206 208q-40 68 -62 150q-22 80 -22 168zM184 576 q0 -204 132 -346q130 -140 322 -140q190 0 320 140q130 142 130 346q0 198 -130 340q-130 140 -320 140q-192 0 -322 -140q-132 -142 -132 -340zM408 1972q0 80 48 118q40 30 80 30h8q44 -4 76 -44q28 -36 26 -82t-46 -80q-10 -8 -22 -12q-10 -4 -24 -4q8 -22 20 -48 q14 -24 36 -48q32 -32 66 -54t66 -36q60 -22 106 -24t56 -2q18 0 28 -8t10 -22q-2 -12 -2 -36q0 -14 -10 -22q-10 -6 -28 -8q-10 -2 -24 -2q-30 0 -74 6q-68 8 -148 48q-40 22 -82 56q-42 32 -80 80q-86 112 -86 194z" />
<glyph unicode="&#xf3;" horiz-adv-x="1276" d="M62 576q0 86 22 166t62 148q76 128 204 208q130 78 288 78q156 0 286 -78q130 -80 204 -208q42 -68 64 -148t22 -166q0 -162 -74 -298t-198 -216q-66 -44 -142 -66q-78 -24 -162 -24q-158 0 -286 78q-130 78 -206 208q-40 68 -62 150q-22 80 -22 168zM184 576 q0 -204 132 -346q130 -140 322 -140q190 0 320 140q130 142 130 346q0 198 -130 340q-130 140 -320 140q-192 0 -322 -140q-132 -142 -132 -340zM370 1616v36q-2 14 8 22t28 8q10 0 56 2q46 0 106 24q32 14 66 36q34 20 66 54q22 24 36 48t20 48q-12 0 -24 4t-22 12 q-44 34 -46 80t26 80q32 42 76 46h8q40 0 80 -30q50 -38 48 -120q0 -80 -86 -192q-38 -48 -80 -80q-40 -34 -82 -56q-78 -40 -148 -48q-44 -6 -74 -6q-14 0 -24 2q-16 2 -28 8q-10 8 -10 22z" />
<glyph unicode="&#xf4;" horiz-adv-x="1276" d="M62 576q0 86 22 166t62 148q76 128 204 208q130 78 288 78q156 0 286 -78q130 -80 204 -208q42 -68 64 -148t22 -166q0 -162 -74 -298t-198 -216q-66 -44 -142 -66q-78 -24 -162 -24q-158 0 -286 78q-130 78 -206 208q-40 68 -62 150q-22 80 -22 168zM184 576 q0 -204 132 -346q130 -140 322 -140q190 0 320 140q130 142 130 346q0 198 -130 340q-130 140 -320 140q-192 0 -322 -140q-132 -142 -132 -340zM236 1626v6q6 10 16 20q116 92 348 280q6 6 14 10t14 4h8q8 0 14 -4q8 -4 16 -10q116 -94 346 -280q12 -10 16 -20q2 -4 2 -6 q0 -8 -6 -14q-8 -12 -26 -32q-6 -10 -16 -14q-10 -6 -26 8q-108 80 -326 240q-106 -80 -320 -240q-14 -10 -22 -10q-2 0 -6 2q-10 4 -16 14q-8 10 -26 32q-6 6 -4 14z" />
<glyph unicode="&#xf5;" horiz-adv-x="1276" d="M62 576q0 86 22 166t62 148q76 128 204 208q130 78 288 78q156 0 286 -78q130 -80 204 -208q42 -68 64 -148t22 -166q0 -162 -74 -298t-198 -216q-66 -44 -142 -66q-78 -24 -162 -24q-158 0 -286 78q-130 78 -206 208q-40 68 -62 150q-22 80 -22 168zM184 576 q0 -204 132 -346q130 -140 322 -140q190 0 320 140q130 142 130 346q0 198 -130 340q-130 140 -320 140q-192 0 -322 -140q-132 -142 -132 -340zM208 1702q0 6 2 12q6 14 16 38q10 26 24 54q30 54 84 104q54 52 144 52q100 0 142 -66q42 -64 78 -122q20 -32 44 -52 q24 -22 60 -22q80 0 114 66q36 64 50 104q4 14 16 20q14 6 26 0q10 -4 32 -12q8 -4 14 -12q4 -6 4 -14q0 -4 -2 -12q-2 -10 -24 -70q-24 -60 -78 -112q-30 -28 -68 -46q-40 -18 -94 -18q-98 0 -140 66t-80 124q-20 32 -44 52q-24 22 -60 22q-82 0 -116 -68q-34 -70 -46 -110 q-6 -16 -16 -20q-12 -6 -28 0q-12 4 -34 14q-14 4 -18 16q-2 6 -2 12z" />
<glyph unicode="&#xf6;" horiz-adv-x="1276" d="M62 576q0 86 22 166t62 148q76 128 204 208q130 78 288 78q156 0 286 -78q130 -80 204 -208q42 -68 64 -148t22 -166q0 -162 -74 -298t-198 -216q-66 -44 -142 -66q-78 -24 -162 -24q-158 0 -286 78q-130 78 -206 208q-40 68 -62 150q-22 80 -22 168zM184 576 q0 -204 132 -346q130 -140 322 -140q190 0 320 140q130 142 130 346q0 198 -130 340q-130 140 -320 140q-192 0 -322 -140q-132 -142 -132 -340zM266 1804q0 44 28 72q28 30 70 30t70 -30q28 -28 28 -72q0 -38 -28 -66t-70 -28t-70 28t-28 66zM816 1804q0 44 28 72 q26 30 68 30t72 -30q28 -28 28 -72q0 -38 -28 -66q-30 -28 -72 -28t-68 28q-28 28 -28 66z" />
<glyph unicode="&#xf7;" horiz-adv-x="1258" d="M40 976v42q0 16 12 26q12 12 26 12h1104q16 0 26 -12q10 -10 10 -26v-42q0 -16 -10 -26q-10 -12 -26 -12h-1104q-14 0 -26 12q-12 10 -12 26zM502 544q0 48 36 82t82 34q50 0 82 -34q34 -34 34 -82q0 -46 -34 -82q-32 -34 -82 -34q-46 0 -82 34q-36 36 -36 82zM502 1446 q0 48 36 80q36 34 82 34q50 0 82 -34q34 -32 34 -80t-34 -82q-32 -36 -82 -36q-46 0 -82 36q-36 34 -36 82z" />
<glyph unicode="&#xf8;" horiz-adv-x="1274" d="M62 574q0 84 22 164t62 150q76 128 204 208q130 80 288 80q122 0 222 -46q98 -46 174 -120q22 20 66 62q10 12 26 12t26 -12l12 -12q12 -10 12 -24q0 -16 -12 -26l-70 -70q56 -78 88 -172q30 -94 30 -194q0 -90 -22 -170t-62 -150q-76 -128 -204 -206q-130 -78 -286 -78 q-118 0 -222 44q-102 46 -180 122l-48 -48q-12 -10 -26 -10q-16 2 -26 12q-2 4 -8 12q-14 12 -14 26q0 16 10 26l52 52q-54 78 -84 170t-30 198zM188 574q0 -82 20 -152q20 -68 60 -130q226 210 678 632q-62 62 -140 96q-78 36 -168 36q-192 0 -320 -142 q-130 -142 -130 -340zM326 222q60 -62 140 -98t172 -36q190 0 320 140t130 346q0 76 -22 148t-64 132q-226 -210 -676 -632z" />
<glyph unicode="&#xf9;" horiz-adv-x="1196" d="M102 492v444v2v2q4 100 42 150t90 56h20q40 2 70 -20q36 -26 44 -78q4 -44 -20 -82q-26 -38 -82 -44q-10 -2 -18 0l-20 4v-434q0 -200 90 -300q88 -102 252 -102q62 0 114 16q54 14 96 38q78 42 122 92q42 48 46 56v816q0 18 10 28t28 10h52q14 0 26 -12q10 -10 10 -26 v-1072q0 -14 -10 -26q-12 -12 -26 -12h-36q-16 0 -24 12q-8 10 -10 24q-4 36 -10 112q-16 -20 -64 -62t-128 -74q-42 -18 -94 -28q-52 -12 -110 -12q-242 0 -350 140q-110 140 -110 382zM338 1968q0 80 50 120q38 30 78 28h8q46 -2 76 -44q28 -36 26 -80q-2 -46 -46 -80 q-10 -8 -22 -12q-10 -4 -22 -6q6 -22 20 -46t34 -48q32 -34 66 -56q34 -20 66 -34q60 -24 108 -26q46 -2 54 -2q20 2 28 -6q10 -8 10 -22v-38q-2 -12 -12 -20q-10 -6 -28 -10h-32h-12q-28 0 -64 6q-68 14 -148 54q-82 42 -150 130q-88 112 -88 192z" />
<glyph unicode="&#xfa;" horiz-adv-x="1196" d="M102 492v444v2v2q4 100 42 150t90 56h20q40 2 70 -20q36 -26 44 -78q4 -44 -20 -82q-26 -38 -82 -44q-10 -2 -18 0l-20 4v-434q0 -200 90 -300q88 -102 252 -102q62 0 114 16q54 14 96 38q78 42 122 92q42 48 46 56v816q0 18 10 28t28 10h52q14 0 26 -12q10 -10 10 -26 v-1072q0 -14 -10 -26q-12 -12 -26 -12h-36q-16 0 -24 12q-8 10 -10 24q-4 36 -10 112q-16 -20 -64 -62t-128 -74q-42 -18 -94 -28q-52 -12 -110 -12q-242 0 -350 140q-110 140 -110 382zM334 1616v36q0 14 8 22q10 8 28 8q10 0 56 2q46 0 106 24q34 14 68 36q34 20 64 54 q22 24 36 48t20 48q-12 0 -24 4q-10 4 -20 12q-46 34 -48 80q0 46 26 80q32 42 78 46h6q42 0 80 -30q50 -38 50 -120q0 -80 -88 -192q-36 -48 -78 -80q-42 -34 -84 -56q-78 -40 -146 -48q-46 -6 -74 -6q-16 0 -26 2q-16 2 -26 8q-12 8 -12 22z" />
<glyph unicode="&#xfb;" horiz-adv-x="1196" d="M102 492v444v2v2q4 100 42 150t90 56h20q40 2 70 -20q36 -26 44 -78q4 -44 -20 -82q-26 -38 -82 -44q-10 -2 -18 0l-20 4v-434q0 -200 90 -300q88 -102 252 -102q62 0 114 16q54 14 96 38q78 42 122 92q42 48 46 56v816q0 18 10 28t28 10h52q14 0 26 -12q10 -10 10 -26 v-1072q0 -14 -10 -26q-12 -12 -26 -12h-36q-16 0 -24 12q-8 10 -10 24q-4 36 -10 112q-16 -20 -64 -62t-128 -74q-42 -18 -94 -28q-52 -12 -110 -12q-242 0 -350 140q-110 140 -110 382zM208 1626q0 2 2 6q4 10 14 20q116 92 348 280q6 6 14 10t14 4h10t14 -4t14 -10 q116 -94 346 -280q12 -10 16 -20q2 -4 2 -6q0 -8 -6 -14q-8 -12 -26 -32q-6 -10 -16 -14q-10 -6 -26 8l-324 240q-108 -80 -322 -240q-12 -10 -22 -10q-2 0 -4 2q-10 4 -18 14t-24 32q-6 6 -6 14z" />
<glyph unicode="&#xfc;" horiz-adv-x="1196" d="M102 492v444v2v2q4 100 42 150t90 56h20q40 2 70 -20q36 -26 44 -78q4 -44 -20 -82q-26 -38 -82 -44q-10 -2 -18 0l-20 4v-434q0 -200 90 -300q88 -102 252 -102q62 0 114 16q54 14 96 38q78 42 122 92q42 48 46 56v816q0 18 10 28t28 10h52q14 0 26 -12q10 -10 10 -26 v-1072q0 -14 -10 -26q-12 -12 -26 -12h-36q-16 0 -24 12q-8 10 -10 24q-4 36 -10 112q-16 -20 -64 -62t-128 -74q-42 -18 -94 -28q-52 -12 -110 -12q-242 0 -350 140q-110 140 -110 382zM224 1804q0 44 28 72q28 30 70 30t70 -30q28 -28 28 -72q0 -38 -28 -66t-70 -28 t-70 28t-28 66zM774 1804q0 44 28 72q26 30 68 30t72 -30q28 -28 28 -72q0 -38 -28 -66q-30 -28 -72 -28t-68 28q-28 28 -28 66z" />
<glyph unicode="&#xfd;" horiz-adv-x="1294" d="M40 -878q0 20 10 44q16 42 56 64t92 2q12 -6 20 -12l16 -16q126 268 376 808q-180 364 -542 1090q-8 18 -4 32q2 14 22 14h62q12 0 22 -6t16 -20q164 -322 490 -970h6q150 324 448 970q6 14 16 20t22 6h62q20 0 24 -14v-8q0 -10 -6 -24q-294 -634 -884 -1904 q-52 -124 -118 -162q-44 -26 -82 -26q-22 0 -42 8q-50 20 -70 60q-12 20 -12 44zM394 1616v36q0 14 8 22q10 8 28 8q10 0 56 2q46 0 106 24q34 14 68 36q32 20 64 54q22 24 36 48t20 48q-12 0 -24 4q-10 4 -22 12q-44 34 -46 80t26 80q32 42 76 46h8q42 0 80 -30 q50 -38 50 -120q-2 -80 -88 -192q-38 -48 -78 -80q-42 -34 -84 -56q-78 -40 -146 -48q-46 -6 -76 -6q-14 0 -24 2q-16 2 -28 8q-10 8 -10 22z" />
<glyph unicode="&#xfe;" d="M44 220v1746q0 18 12 28q14 10 28 10h46q16 0 26 -12q12 -10 12 -26v-930q26 22 118 78q92 58 248 58q84 0 160 -24q74 -24 138 -68q116 -80 186 -216q68 -136 68 -298q0 -256 -162 -428t-416 -172q-142 0 -228 50q-88 50 -112 70v-914q0 -16 -12 -26q-10 -12 -26 -12 h-48q-16 0 -26 12q-12 10 -12 26v1048zM170 224l14 -14q12 -14 34 -30q40 -30 110 -62q72 -32 166 -32q210 0 338 138q130 138 130 342q0 200 -120 344t-316 144q-58 0 -108 -12t-90 -32q-74 -34 -114 -74q-40 -38 -44 -46v-666z" />
<glyph unicode="&#xff;" horiz-adv-x="1294" d="M40 -878q0 20 10 44q16 42 56 64t92 2q12 -6 20 -12l16 -16q126 268 376 808q-180 364 -542 1090q-8 18 -4 32q2 14 22 14h62q12 0 22 -6t16 -20q164 -322 490 -970h6q150 324 448 970q6 14 16 20t22 6h62q20 0 24 -14v-8q0 -10 -6 -24q-294 -634 -884 -1904 q-52 -124 -118 -162q-44 -26 -82 -26q-22 0 -42 8q-50 20 -70 60q-12 20 -12 44zM282 1804q0 44 28 72q30 30 70 30q44 0 70 -30q28 -28 28 -72q0 -38 -28 -66q-26 -28 -70 -28q-40 0 -70 28q-28 28 -28 66zM834 1804q0 44 26 72q28 30 68 30q44 0 72 -30q28 -28 28 -72 q0 -38 -28 -66t-72 -28q-40 0 -68 28q-26 28 -26 66z" />
<glyph unicode="&#x152;" d="M-796 1002q0 150 40 290q40 138 114 256q136 222 366 356t510 134q80 0 148 -12q66 -10 96 -16h1146q14 0 24 -12t10 -26v-48q0 -16 -10 -28q-10 -10 -24 -10h-1050v-792h908q16 0 26 -12q12 -10 12 -26v-48q0 -16 -12 -26q-10 -12 -26 -12h-908v-848h1050q14 0 24 -12 t10 -26v-46q0 -16 -10 -26q-10 -12 -24 -12h-1142q-30 -6 -100 -18q-68 -10 -148 -10q-152 0 -290 40t-256 112q-220 136 -352 366t-132 512zM-672 1002q0 -244 118 -448q116 -202 310 -322q104 -64 226 -98q120 -36 252 -36q52 0 102 4q50 6 100 16v1768q-50 10 -98 16 q-50 6 -104 6q-132 0 -252 -34q-122 -36 -226 -100q-192 -120 -310 -324t-118 -448z" />
<glyph unicode="&#x153;" horiz-adv-x="2256" d="M122 576q0 86 24 166q22 80 62 148q76 128 204 208q128 78 284 78q140 0 264 -60q124 -62 204 -168q74 108 184 168t262 60q220 0 372 -148q150 -150 150 -386q0 -34 -8 -72q-6 -40 -36 -40h-870v-188q44 -96 156 -176q110 -80 244 -80q114 0 200 36t138 70q20 14 30 14 q12 2 22 -14q10 -12 28 -40q8 -8 4 -20q-2 -12 -14 -26q-44 -42 -164 -88t-252 -46q-164 0 -272 66q-108 68 -184 172q-80 -110 -198 -174t-260 -64q-84 0 -160 24q-78 22 -144 66q-122 80 -196 216q-74 134 -74 298zM246 576q0 -204 130 -346q132 -140 320 -140 q142 0 256 84q112 84 150 168v488q-46 70 -154 148q-110 78 -252 78q-188 0 -320 -140q-130 -142 -130 -340zM1218 634h788q0 168 -102 296t-294 128q-122 0 -232 -62q-112 -62 -160 -170v-192z" />
<glyph unicode="&#x178;" d="M-196 1986q0 6 2 10q8 14 28 14h88q10 0 20 -6q10 -4 16 -12q218 -298 654 -892q182 242 542 726q-8 2 -14 6q-8 4 -16 10q-40 38 -40 84q2 46 32 78q36 38 80 40q44 0 84 -36q42 -38 42 -106t-64 -156v-2q-194 -254 -580 -764v-942q0 -16 -10 -26q-12 -12 -26 -12 q-28 0 -64 2q-34 2 -34 36v938l-732 990q-8 12 -8 20zM216 2382q0 42 28 72q28 28 68 28q44 0 72 -28q26 -30 26 -72q0 -40 -26 -68q-28 -28 -72 -28q-40 0 -68 28t-28 68zM766 2382q0 42 28 72q26 28 66 28q44 0 72 -28q30 -30 30 -72q0 -40 -30 -68q-28 -28 -72 -28 q-40 0 -66 28q-28 28 -28 68z" />
<glyph unicode="&#x2c6;" horiz-adv-x="970" d="M92 1626v6q6 10 16 20q116 92 348 280q6 6 14 10t14 4h8q8 0 16 -4q6 -4 14 -10q116 -94 346 -280q12 -10 16 -20q2 -4 2 -6q0 -8 -6 -14q-8 -12 -26 -32q-6 -10 -16 -14q-10 -6 -26 8q-108 80 -326 240q-106 -80 -320 -240q-14 -10 -22 -10q-2 0 -6 2q-8 4 -16 14 t-26 32q-6 6 -4 14z" />
<glyph unicode="&#x2dc;" d="M148 1702q-2 6 2 14q10 26 36 84t78 104q28 26 66 42t86 16q100 0 142 -64q42 -66 78 -122q20 -32 44 -54q24 -20 60 -20q80 0 114 64q36 66 50 106q4 16 16 20q14 6 26 0l30 -12q10 -4 16 -12q4 -4 4 -12q0 -6 -2 -12q-4 -12 -26 -72q-24 -60 -78 -110q-28 -28 -68 -46 t-92 -18h-4q-50 0 -84 20q-34 22 -60 52q-46 58 -78 124t-96 66q-82 0 -116 -68q-34 -70 -48 -110q-4 -16 -16 -22t-28 0q-10 6 -34 16q-12 4 -16 16q-2 4 -2 10z" />
<glyph unicode="&#x2000;" horiz-adv-x="1388" />
<glyph unicode="&#x2001;" horiz-adv-x="2776" />
<glyph unicode="&#x2002;" horiz-adv-x="1388" />
<glyph unicode="&#x2003;" horiz-adv-x="2776" />
<glyph unicode="&#x2004;" horiz-adv-x="925" />
<glyph unicode="&#x2005;" horiz-adv-x="694" />
<glyph unicode="&#x2006;" horiz-adv-x="462" />
<glyph unicode="&#x2007;" horiz-adv-x="462" />
<glyph unicode="&#x2008;" horiz-adv-x="347" />
<glyph unicode="&#x2009;" horiz-adv-x="555" />
<glyph unicode="&#x200a;" horiz-adv-x="154" />
<glyph unicode="&#x2010;" horiz-adv-x="884" d="M82 702v32q0 16 10 26t24 10h648q16 0 26 -10q12 -10 12 -26v-32q0 -16 -12 -26q-10 -12 -26 -12h-648q-14 0 -24 12q-10 10 -10 26z" />
<glyph unicode="&#x2011;" horiz-adv-x="884" d="M82 702v32q0 16 10 26t24 10h648q16 0 26 -10q12 -10 12 -26v-32q0 -16 -12 -26q-10 -12 -26 -12h-648q-14 0 -24 12q-10 10 -10 26z" />
<glyph unicode="&#x2012;" horiz-adv-x="884" d="M82 702v32q0 16 10 26t24 10h648q16 0 26 -10q12 -10 12 -26v-32q0 -16 -12 -26q-10 -12 -26 -12h-648q-14 0 -24 12q-10 10 -10 26z" />
<glyph unicode="&#x2013;" horiz-adv-x="802" d="M40 702v32q0 16 10 26t26 10h648q14 0 26 -10q10 -10 10 -26v-32q0 -16 -10 -26q-12 -12 -26 -12h-648q-16 0 -26 12q-10 10 -10 26z" />
<glyph unicode="&#x2014;" d="M-2 702v32q0 18 10 28t24 10h1058q16 0 26 -10q12 -10 12 -28v-32q0 -14 -12 -26q-10 -10 -26 -10h-1058q-14 -2 -24 10t-10 26z" />
<glyph unicode="&#x2019;" horiz-adv-x="448" d="M82 1412v6q4 12 18 24q8 4 42 34q36 30 70 86q16 30 30 68t18 84q2 32 -2 60t-12 48q-10 -6 -22 -10q-10 -4 -24 -4q-56 0 -84 36q-30 34 -30 80q0 50 34 80q32 30 86 30q62 0 112 -62q48 -64 48 -206q0 -112 -38 -194q-40 -82 -86 -134q-24 -28 -46 -46t-36 -26t-28 -10 h-2q-10 0 -18 10l-24 30q-6 8 -6 16z" />
<glyph unicode="&#x201c;" horiz-adv-x="962" d="M82 1626q0 62 12 112q14 52 34 96q36 80 86 128q48 48 74 64q16 8 28 8h2q12 0 20 -8q6 -10 22 -30q6 -8 6 -16v-6q-2 -12 -18 -24q-6 -4 -42 -34t-68 -86q-18 -30 -32 -68t-18 -84q-2 -32 2 -60t12 -48q12 6 22 10q12 4 24 4q56 0 86 -36q28 -34 28 -80q0 -50 -32 -80 q-34 -32 -88 -32q-62 0 -110 64q-50 64 -50 206zM596 1626q0 60 12 112t32 96q38 78 86 128q50 48 76 64q14 8 28 8h2q10 0 18 -8l24 -30q6 -8 6 -16v-6q-2 -12 -18 -24q-6 -4 -42 -34t-70 -86q-16 -30 -30 -68t-18 -84q-2 -32 2 -60t12 -48q10 6 22 10q10 4 24 4 q56 0 84 -36q30 -34 30 -80q0 -50 -32 -80q-34 -32 -88 -32q-62 0 -112 64q-48 64 -48 206z" />
<glyph unicode="&#x201d;" d="M0 1412v6q4 12 18 22q8 6 42 36q36 30 70 86q18 30 30 68q14 36 18 82q2 34 -2 60q-2 28 -12 50q-10 -6 -22 -10q-10 -4 -24 -4q-56 0 -84 34q-30 36 -30 80q0 52 34 82q32 30 86 30q62 0 112 -64q48 -64 48 -206q0 -112 -38 -194q-40 -82 -86 -132q-24 -28 -46 -46 t-36 -26t-28 -10h-2q-10 0 -18 10t-24 28q-6 8 -6 18zM514 1412v6q2 12 18 22q4 4 16 14q14 10 32 26q32 32 68 90t44 142q2 34 -2 60q-4 28 -12 50q-10 -6 -22 -10t-24 -4q-56 0 -86 34q-28 36 -28 80q0 52 32 82q34 30 88 30q62 0 112 -64q48 -64 48 -206q0 -60 -12 -112 q-14 -52 -32 -94q-38 -80 -86 -128q-50 -48 -76 -64q-16 -8 -28 -10h-2q-12 0 -18 10q-8 10 -24 28q-6 8 -6 18z" />
<glyph unicode="&#x2022;" d="M352 646q0 90 60 152t142 62q88 0 150 -62q64 -62 64 -152q0 -84 -62 -142q-62 -60 -152 -60q-82 0 -142 60t-60 142z" />
<glyph unicode="&#x2026;" horiz-adv-x="1502" d="M82 90q0 48 36 82q34 32 80 32q50 0 82 -32q34 -34 34 -82t-34 -82q-32 -34 -82 -34q-46 0 -80 34q-36 34 -36 82zM632 90q0 48 34 82q34 32 82 32t82 -32q32 -34 32 -82t-32 -82q-34 -34 -82 -34t-82 34q-34 36 -34 82zM1192 90q0 48 34 82q34 32 80 32q50 0 82 -32 q34 -34 34 -82t-34 -82q-32 -34 -82 -34q-46 0 -80 34q-34 36 -34 82z" />
<glyph unicode="&#x202f;" horiz-adv-x="555" />
<glyph unicode="&#x205f;" horiz-adv-x="694" />
<glyph unicode="&#x20ac;" horiz-adv-x="2308" d="M164 782v14q0 14 10 26q10 10 24 10h136q-8 40 -12 82t-4 88q0 20 2 40q0 20 2 40h-124q-14 0 -24 12q-10 14 -10 28v14q0 16 10 26q10 12 24 12h136q38 238 178 432q140 192 346 306q112 60 238 92q126 34 260 34q200 0 356 -58q156 -56 288 -162q112 -86 134 -164 q8 -28 8 -52q0 -44 -24 -76q-32 -42 -76 -50t-86 22q-36 28 -46 72t24 88q4 6 10 12q4 4 10 8q-122 114 -272 172t-326 58q-116 0 -224 -28q-106 -28 -202 -80q-176 -94 -294 -258q-120 -166 -156 -368h926q20 0 28 -14q10 -14 10 -28v-12q0 -16 -12 -26q-10 -12 -26 -12 h-942q-2 -20 -2 -38v-42q0 -42 2 -86q4 -42 12 -84h818q18 0 26 -14t8 -28v-12q0 -14 -10 -24t-24 -10h-794q28 -98 76 -186q50 -86 116 -160q122 -138 294 -216q170 -80 370 -80q210 0 344 66t262 174q14 12 26 12q12 2 20 -6l48 -48q14 -14 12 -28q0 -12 -12 -22 q-148 -142 -328 -210t-372 -68q-126 0 -244 28q-120 30 -226 82q-196 100 -336 272t-196 390h-156q-16 0 -26 10q-8 12 -8 28z" />
<glyph unicode="&#x25fc;" horiz-adv-x="1370" d="M0 0v1370h1370v-1370h-1370z" />
</font>
</defs>
</svg>
